<svg width="112" height="31" viewBox="0 0 112 31" fill="none" xmlns="http://www.w3.org/2000/svg">
<path d="M17.7389 14.8412C17.7093 11.5442 20.4393 9.94019 20.5641 9.86552C19.018 7.61192 16.6216 7.30401 15.7794 7.27946C13.7667 7.06771 11.8144 8.48349 10.7891 8.48349C9.74336 8.48349 8.1645 7.29992 6.46286 7.3347C4.27313 7.36846 2.22461 8.63591 1.1011 10.6041C-1.21755 14.6172 0.511716 20.5146 2.73316 23.7584C3.8444 25.3481 5.14289 27.1209 6.84248 27.0585C8.50524 26.991 9.12635 25.9997 11.1329 25.9997C13.1211 25.9997 13.7043 27.0585 15.4377 27.0186C17.2222 26.991 18.3457 25.4228 19.4181 23.8198C20.7022 21.9999 21.2179 20.2057 21.2384 20.1136C21.1975 20.0993 17.7737 18.7919 17.7389 14.8412ZM14.4646 5.14555C15.3589 4.02745 15.9708 2.5063 15.8009 0.962646C14.5065 1.01993 12.8878 1.85774 11.9556 2.95129C11.1309 3.91493 10.3941 5.49438 10.5845 6.97973C12.0385 7.08816 13.5314 6.24626 14.4646 5.14555Z" fill="white"/>
<path d="M41.8227 26.8308H39.499L38.2261 22.832H33.8016L32.589 26.8308H30.3267L34.7112 13.2171H37.4187L41.8227 26.8308ZM37.8423 21.1543L36.6912 17.5995C36.5694 17.2364 36.3402 16.3812 36.0046 15.035H35.9637C35.8286 15.614 35.6127 16.4692 35.317 17.5995L34.1853 21.1543H37.8423ZM53.0763 21.8019C53.0763 23.4714 52.623 24.791 51.7154 25.7597C50.9029 26.6221 49.893 27.0528 48.6886 27.0528C47.3881 27.0528 46.4529 26.5894 45.885 25.6605V30.8111H43.7034V20.2408C43.7034 19.1923 43.6758 18.1172 43.6226 17.0144H45.5412L45.6629 18.5703H45.7039C46.4314 17.398 47.5355 16.8118 49.0171 16.8118C50.1754 16.8118 51.1424 17.2691 51.9159 18.1847C52.6885 19.1023 53.0763 20.3073 53.0763 21.8019ZM50.8538 21.8817C50.8538 20.9262 50.6389 20.1385 50.2071 19.5176C49.7354 18.8721 49.102 18.5488 48.308 18.5488C47.7698 18.5488 47.2807 18.7289 46.8437 19.0839C46.4058 19.4419 46.1193 19.9094 45.9853 20.4884C45.9254 20.7049 45.8914 20.9278 45.884 21.1523V22.7901C45.884 23.5031 46.1029 24.1056 46.5409 24.5987C46.9788 25.0897 47.5477 25.3362 48.2476 25.3362C49.0693 25.3362 49.7088 25.0181 50.1662 24.3869C50.6246 23.7537 50.8538 22.919 50.8538 21.8817ZM64.3697 21.8019C64.3697 23.4714 63.9165 24.791 63.0088 25.7597C62.1954 26.6221 61.1865 27.0528 59.9811 27.0528C58.6806 27.0528 57.7453 26.5894 57.1774 25.6605V30.8111H54.9959V20.2408C54.9959 19.1923 54.9682 18.1172 54.915 17.0144H56.8336L56.9554 18.5703H56.9963C57.7228 17.398 58.8269 16.8118 60.3095 16.8118C61.4668 16.8118 62.4338 17.2691 63.2094 18.1847C63.9809 19.1023 64.3697 20.3073 64.3697 21.8019ZM62.1463 21.8817C62.1463 20.9262 61.9303 20.1385 61.4985 19.5176C61.0268 18.8721 60.3955 18.5488 59.6015 18.5488C59.0632 18.5488 58.5741 18.7289 58.1352 19.0839C57.6972 19.4419 57.4117 19.9094 57.2777 20.4884C57.2112 20.7585 57.1754 20.9784 57.1754 21.1523V22.7901C57.1754 23.5031 57.3954 24.1056 57.8313 24.5987C58.2692 25.0887 58.8381 25.3362 59.5401 25.3362C60.3628 25.3362 61.0023 25.0181 61.4586 24.3869C61.9171 23.7537 62.1463 22.919 62.1463 21.8817ZM76.9965 23.012C76.9965 24.1711 76.5913 25.1132 75.786 25.8405C74.8999 26.6344 73.6628 27.0323 72.0768 27.0323C70.6115 27.0323 69.4368 26.75 68.5507 26.1843L69.0552 24.3664C70.0119 24.9332 71.0627 25.2155 72.2067 25.2155C73.0294 25.2155 73.6689 25.0293 74.1253 24.66C74.5827 24.2897 74.8139 23.7946 74.8139 23.1767C74.8139 22.6233 74.6226 22.1599 74.2471 21.7824C73.8695 21.406 73.2453 21.0551 72.3684 20.7329C69.9842 19.8439 68.7912 18.5437 68.7912 16.8333C68.7912 15.7163 69.2127 14.8017 70.0538 14.0867C70.8949 13.3726 72.0103 13.0156 73.3978 13.0156C74.6369 13.0156 75.6694 13.2315 76.489 13.6621L75.9415 15.4401C75.17 15.0227 74.2992 14.814 73.3251 14.814C72.5556 14.814 71.9519 15.0032 71.5201 15.3797C71.1569 15.7163 70.9727 16.1265 70.9727 16.6134C70.9727 17.1505 71.1825 17.5965 71.5999 17.9463C71.9622 18.2686 72.6232 18.6194 73.5789 18.9959C74.7515 19.4685 75.6131 20.0188 76.1646 20.651C76.7202 21.2832 76.9965 22.0719 76.9965 23.012ZM84.2277 18.6511H81.8231V23.4171C81.8231 24.6294 82.2467 25.2339 83.096 25.2339C83.4859 25.2339 83.8092 25.2012 84.065 25.1327L84.1254 26.7888C83.6956 26.9494 83.1298 27.0303 82.4289 27.0303C81.5673 27.0303 80.894 26.7673 80.408 26.2415C79.924 25.7157 79.6804 24.835 79.6804 23.5951V18.647H78.2479V17.0103H79.6804V15.213L81.8231 14.5664V17.0103H84.2277V18.6511ZM95.0556 21.8418C95.0556 23.3506 94.6238 24.5895 93.7622 25.5582C92.8608 26.5556 91.6615 27.0528 90.1666 27.0528C88.7238 27.0528 87.5768 26.575 86.7213 25.6206C85.8659 24.6641 85.4382 23.4591 85.4382 22.0054C85.4382 20.4843 85.8802 19.2383 86.7612 18.2696C87.6443 17.2998 88.8333 16.8149 90.3282 16.8149C91.769 16.8149 92.9262 17.2937 93.8021 18.2491C94.6391 19.1759 95.0556 20.3728 95.0556 21.8418ZM92.7942 21.8919C92.7942 20.9927 92.5998 20.2214 92.21 19.5759C91.7526 18.7964 91.0977 18.4067 90.2495 18.4067C89.3756 18.4067 88.7054 18.7964 88.249 19.5759C87.8582 20.2214 87.6637 21.006 87.6637 21.9328C87.6637 22.833 87.8582 23.6064 88.249 24.2498C88.7207 25.0293 89.3787 25.4191 90.231 25.4191C91.065 25.4191 91.7188 25.0211 92.1916 24.2304C92.5927 23.5696 92.7942 22.7931 92.7942 21.8919ZM102.15 18.9325C101.923 18.8915 101.693 18.8713 101.462 18.8721C100.695 18.8721 100.101 19.1606 99.6837 19.7416C99.3215 20.2531 99.1393 20.8996 99.1393 21.6801V26.8308H96.9578V20.1058C96.9597 19.0753 96.9386 18.0449 96.8944 17.0154H98.7945L98.8743 18.8936H98.9347C99.1659 18.2481 99.5282 17.7274 100.025 17.3377C100.481 16.9971 101.034 16.8127 101.602 16.8118C101.804 16.8118 101.986 16.8262 102.148 16.8517L102.15 18.9325ZM111.906 21.4582C111.912 21.7897 111.885 22.121 111.826 22.4474H105.282C105.306 23.4171 105.624 24.1598 106.231 24.6713C106.783 25.1275 107.496 25.3567 108.372 25.3567C109.341 25.3567 110.225 25.2032 111.02 24.8933L111.362 26.4062C110.433 26.8113 109.336 27.0129 108.07 27.0129C106.548 27.0129 105.352 26.5648 104.483 25.6707C103.615 24.7756 103.18 23.5726 103.18 22.0658C103.18 20.5866 103.584 19.3539 104.394 18.3708C105.241 17.3213 106.386 16.7965 107.827 16.7965C109.242 16.7965 110.313 17.3213 111.041 18.3708C111.617 19.2025 111.906 20.2337 111.906 21.4582ZM109.826 20.8925C109.841 20.2449 109.698 19.6874 109.402 19.2158C109.025 18.6082 108.444 18.3054 107.665 18.3054C106.952 18.3054 106.371 18.601 105.929 19.1943C105.565 19.6659 105.349 20.2326 105.283 20.8904L109.826 20.8925Z" fill="white"/>
<path d="M33.1724 8.40337C32.5656 8.40337 32.0407 8.3737 31.6038 8.32358V1.74181C32.2148 1.64744 32.8324 1.60092 33.4507 1.60269C35.9525 1.60269 37.1047 2.83332 37.1047 4.83935C37.1047 7.1533 35.7438 8.40337 33.1724 8.40337ZM33.5387 2.44664C33.201 2.44664 32.9135 2.4671 32.6751 2.5162V7.51952C32.804 7.53998 33.0516 7.54919 33.3995 7.54919C35.0388 7.54919 35.972 6.61625 35.972 4.86902C35.972 3.31104 35.1278 2.44664 33.5387 2.44664ZM40.6952 8.45349C39.2852 8.45349 38.3714 7.40086 38.3714 5.97178C38.3714 4.48234 39.3046 3.4205 40.775 3.4205C42.1646 3.4205 43.0988 4.42301 43.0988 5.89301C43.0988 7.40086 42.1359 8.45349 40.6952 8.45349ZM40.7361 4.20409C39.9616 4.20409 39.4653 4.92835 39.4653 5.94109C39.4653 6.93439 39.9718 7.65865 40.7259 7.65865C41.48 7.65865 41.9865 6.88426 41.9865 5.92063C41.9865 4.93858 41.4903 4.20409 40.7361 4.20409ZM51.1394 3.51973L49.6301 8.34403H48.6468L48.0216 6.249C47.8661 5.73654 47.7367 5.21655 47.6338 4.69102H47.6133C47.5345 5.21683 47.3851 5.74366 47.2265 6.249L46.5614 8.34403H45.5679L44.1476 3.51973H45.2496L45.7961 5.81322C45.925 6.35948 46.0334 6.87506 46.1235 7.36199H46.144C46.2227 6.95587 46.3517 6.44848 46.541 5.82345L47.2265 3.52075H48.1004L48.7563 5.77434C48.9149 6.32061 49.0438 6.85664 49.1441 7.36301H49.1727C49.2423 6.86687 49.3518 6.34004 49.5002 5.77434L50.0865 3.52075L51.1394 3.51973ZM56.6956 8.34403H55.6232V5.57384C55.6232 4.72069 55.2958 4.29309 54.6501 4.29309C54.0147 4.29309 53.5778 4.83935 53.5778 5.47462V8.34403H52.5054V4.89869C52.5054 4.47211 52.4952 4.01484 52.4655 3.51871H53.4089L53.4591 4.26342H53.4888C53.7773 3.74785 54.3626 3.4205 55.0185 3.4205C56.0315 3.4205 56.6966 4.19489 56.6966 5.45518L56.6956 8.34403ZM59.6527 8.34403H58.5794V1.30603H59.6527V8.34403ZM63.5625 8.45349C62.1535 8.45349 61.2387 7.40086 61.2387 5.97178C61.2387 4.48234 62.1719 3.4205 63.6413 3.4205C65.0319 3.4205 65.9651 4.42301 65.9651 5.89301C65.9661 7.40086 65.0022 8.45349 63.5625 8.45349ZM63.6024 4.20409C62.8278 4.20409 62.3316 4.92835 62.3316 5.94109C62.3316 6.93439 62.8391 7.65865 63.5912 7.65865C64.3463 7.65865 64.8518 6.88426 64.8518 5.92063C64.8528 4.93858 64.3576 4.20409 63.6024 4.20409ZM70.1931 8.34403L70.1153 7.78857H70.0867C69.7592 8.2356 69.2814 8.45349 68.6756 8.45349C67.811 8.45349 67.197 7.8479 67.197 7.03362C67.197 5.84288 68.2295 5.22706 70.0171 5.22706V5.13806C70.0171 4.5028 69.6804 4.18466 69.0153 4.18466C68.5395 4.18466 68.1221 4.30434 67.7547 4.54269L67.5368 3.83787C67.9829 3.55962 68.5395 3.4205 69.1934 3.4205C70.454 3.4205 71.0905 4.08543 71.0905 5.41631V7.1932C71.0905 7.68013 71.112 8.0576 71.16 8.34506L70.1931 8.34403ZM70.0457 5.94109C68.8547 5.94109 68.2571 6.22956 68.2571 6.91393C68.2571 7.4203 68.5651 7.66786 68.9928 7.66786C69.5382 7.66786 70.0457 7.25151 70.0457 6.68581V5.94109ZM76.2977 8.34403L76.2476 7.56965H76.2179C75.9099 8.15479 75.3922 8.45349 74.6687 8.45349C73.5053 8.45349 72.6437 7.43053 72.6437 5.99121C72.6437 4.48234 73.537 3.41948 74.7567 3.41948C75.4024 3.41948 75.8598 3.63737 76.1176 4.0752H76.1391V1.30603H77.2125V7.04385C77.2125 7.51032 77.2237 7.94712 77.2524 8.34403H76.2977ZM76.1391 5.5053C76.1391 4.83015 75.692 4.25422 75.0095 4.25422C74.2144 4.25422 73.7284 4.95904 73.7284 5.95132C73.7284 6.92416 74.2328 7.59011 74.988 7.59011C75.6623 7.59011 76.1391 7.00395 76.1391 6.30936V5.5053ZM84.018 8.45349C82.609 8.45349 81.6953 7.40086 81.6953 5.97178C81.6953 4.48234 82.6285 3.4205 84.0979 3.4205C85.4884 3.4205 86.4216 4.42301 86.4216 5.89301C86.4226 7.40086 85.4598 8.45349 84.018 8.45349ZM84.058 4.20409C83.2844 4.20409 82.7881 4.92835 82.7881 5.94109C82.7881 6.93439 83.2946 7.65865 84.0477 7.65865C84.8029 7.65865 85.3083 6.88426 85.3083 5.92063C85.3104 4.93858 84.8141 4.20409 84.058 4.20409ZM92.1886 8.34403H91.1152V5.57384C91.1152 4.72069 90.7878 4.29309 90.1421 4.29309C89.5067 4.29309 89.0708 4.83935 89.0708 5.47462V8.34403H87.9974V4.89869C87.9974 4.47211 87.9872 4.01484 87.9575 3.51871H88.9009L88.9511 4.26342H88.9807C89.2683 3.74785 89.8546 3.41948 90.5095 3.41948C91.5225 3.41948 92.1886 4.19386 92.1886 5.45416V8.34403ZM99.4034 4.32378H98.2236V6.66637C98.2236 7.26276 98.4303 7.56044 98.8478 7.56044C99.0371 7.56044 99.1957 7.53998 99.3236 7.51032L99.3533 8.3246C99.1456 8.40439 98.8673 8.44429 98.5214 8.44429C97.6762 8.44429 97.1707 7.97781 97.1707 6.75639V4.32378H96.4667V3.51973H97.1707V2.63589L98.2236 2.31774V3.51871H99.4034V4.32378ZM105.08 8.34403H104.009V5.5943C104.009 4.73092 103.683 4.29411 103.036 4.29411C102.48 4.29411 101.963 4.67159 101.963 5.43574V8.34403H100.891V1.30603H101.963V4.20409H101.984C102.322 3.67829 102.811 3.41948 103.435 3.41948C104.456 3.41948 105.08 4.2133 105.08 5.47462V8.34403ZM110.896 6.18967H107.678C107.699 7.10318 108.304 7.61875 109.199 7.61875C109.675 7.61875 110.113 7.53896 110.499 7.39063L110.666 8.13535C110.21 8.33381 109.673 8.43303 109.047 8.43303C107.538 8.43303 106.645 7.47963 106.645 6.00144C106.645 4.52223 107.56 3.41027 108.927 3.41027C110.16 3.41027 110.933 4.32378 110.933 5.70376C110.94 5.86662 110.928 6.02972 110.896 6.18967ZM109.913 5.42551C109.913 4.68079 109.538 4.15499 108.852 4.15499C108.236 4.15499 107.749 4.69102 107.679 5.42551H109.913Z" fill="white"/>
</svg>
