<svg width="127" height="31" viewBox="0 0 127 31" fill="none" xmlns="http://www.w3.org/2000/svg">
<path d="M39.5403 3.67304C39.5403 4.56348 39.3174 5.34261 38.7603 5.89913C38.0917 6.56696 37.3117 6.90087 36.3089 6.90087C35.306 6.90087 34.526 6.56696 33.8575 5.89913C33.1889 5.2313 32.8546 4.45217 32.8546 3.45043C32.8546 2.4487 33.1889 1.66956 33.8575 1.00174C34.526 0.333912 35.306 0 36.3089 0C36.7546 0 37.2003 0.111306 37.646 0.333914C38.0917 0.556523 38.426 0.77913 38.6489 1.11304L38.0917 1.66956C37.646 1.11304 37.0889 0.890436 36.3089 0.890436C35.6403 0.890436 34.9717 1.11304 34.526 1.66956C33.9689 2.11478 33.746 2.78261 33.746 3.56174C33.746 4.34087 33.9689 5.00869 34.526 5.45391C35.0832 5.89913 35.6403 6.23304 36.3089 6.23304C37.0889 6.23304 37.646 6.01043 38.2032 5.45391C38.5374 5.12 38.7603 4.67478 38.7603 4.11826H36.3089V3.33913H39.5403C39.5403 3.33913 39.5403 3.56174 39.5403 3.67304Z" fill="white"/>
<path d="M44.6663 0.890215H41.6578V3.005H44.4435V3.78413H41.6578V5.89891H44.6663V6.78934H40.7664V0.111084H44.6663V0.890215Z" fill="white"/>
<path d="M48.3433 6.78934H47.4519V0.890215H45.5576V0.111084H50.2376V0.890215H48.3433V6.78934Z" fill="white"/>
<path d="M53.4689 6.78934V0.111084H54.3603V6.78934H53.4689Z" fill="white"/>
<path d="M58.1492 6.78934H57.2578V0.890215H55.3635V0.111084H59.9321V0.890215H58.0378V6.78934H58.1492Z" fill="white"/>
<path d="M68.7348 5.89913C68.0662 6.56696 67.2862 6.90087 66.2834 6.90087C65.2805 6.90087 64.5005 6.56696 63.8319 5.89913C63.1634 5.2313 62.8291 4.45217 62.8291 3.45043C62.8291 2.4487 63.1634 1.66956 63.8319 1.00174C64.5005 0.333912 65.2805 0 66.2834 0C67.2862 0 68.0662 0.333912 68.7348 1.00174C69.4034 1.66956 69.7376 2.4487 69.7376 3.45043C69.7376 4.45217 69.4034 5.2313 68.7348 5.89913ZM64.5005 5.34261C64.9462 5.78783 65.6148 6.12174 66.2834 6.12174C66.9519 6.12174 67.6205 5.89913 68.0662 5.34261C68.5119 4.89739 68.8462 4.22956 68.8462 3.45043C68.8462 2.6713 68.6234 2.00348 68.0662 1.55826C67.6205 1.11304 66.9519 0.779131 66.2834 0.779131C65.6148 0.779131 64.9462 1.00174 64.5005 1.55826C64.0548 2.00348 63.7205 2.6713 63.7205 3.45043C63.7205 4.22956 63.9434 4.89739 64.5005 5.34261Z" fill="white"/>
<path d="M70.9635 6.78934V0.111084H71.9664L75.1978 5.34239V4.00674V0.111084H76.0892V6.78934H75.1978L71.7435 1.33543V2.67108V6.78934H70.9635Z" fill="white"/>
<path d="M62.6063 16.5841C59.9321 16.5841 57.8149 18.5876 57.8149 21.3702C57.8149 24.0415 59.9321 26.1563 62.6063 26.1563C65.2806 26.1563 67.3978 24.1528 67.3978 21.3702C67.3978 18.4763 65.2806 16.5841 62.6063 16.5841ZM62.6063 24.1528C61.1578 24.1528 59.9321 22.9284 59.9321 21.2589C59.9321 19.5893 61.1578 18.365 62.6063 18.365C64.0549 18.365 65.2806 19.478 65.2806 21.2589C65.2806 22.9284 64.0549 24.1528 62.6063 24.1528ZM52.2435 16.5841C49.5693 16.5841 47.4521 18.5876 47.4521 21.3702C47.4521 24.0415 49.5693 26.1563 52.2435 26.1563C54.9178 26.1563 57.0349 24.1528 57.0349 21.3702C57.0349 18.4763 54.9178 16.5841 52.2435 16.5841ZM52.2435 24.1528C50.795 24.1528 49.5693 22.9284 49.5693 21.2589C49.5693 19.5893 50.795 18.365 52.2435 18.365C53.6921 18.365 54.9178 19.478 54.9178 21.2589C54.9178 22.9284 53.6921 24.1528 52.2435 24.1528ZM39.875 18.031V20.0345H44.6664C44.555 21.1476 44.1093 22.038 43.5521 22.5945C42.8836 23.2623 41.7693 24.0415 39.875 24.0415C36.8665 24.0415 34.6379 21.7041 34.6379 18.6989C34.6379 15.6937 36.9779 13.3563 39.875 13.3563C41.435 13.3563 42.6607 14.0241 43.5521 14.8032L45.0007 13.3563C43.775 12.2432 42.215 11.3528 39.9864 11.3528C35.975 11.3528 32.5208 14.6919 32.5208 18.6989C32.5208 22.7058 35.975 26.045 39.9864 26.045C42.215 26.045 43.775 25.3771 45.1121 23.9302C46.4493 22.5945 46.895 20.7023 46.895 19.2554C46.895 18.8102 46.895 18.365 46.7836 18.031H39.875ZM90.4634 19.5893C90.0177 18.4763 88.9034 16.5841 86.452 16.5841C84.0005 16.5841 81.9948 18.4763 81.9948 21.3702C81.9948 24.0415 84.0005 26.1563 86.6748 26.1563C88.7919 26.1563 90.1291 24.8206 90.5748 24.0415L89.0148 22.9284C88.4577 23.7076 87.7891 24.2641 86.6748 24.2641C85.5605 24.2641 84.892 23.8189 84.3348 22.8171L90.6862 20.1458L90.4634 19.5893ZM84.0005 21.1476C84.0005 19.3667 85.4491 18.365 86.452 18.365C87.232 18.365 88.0119 18.8102 88.2348 19.3667L84.0005 21.1476ZM78.7634 25.711H80.8806V11.798H78.7634V25.711ZM75.4206 17.5858C74.8634 17.0293 73.972 16.4728 72.8577 16.4728C70.5177 16.4728 68.2892 18.5876 68.2892 21.2589C68.2892 23.9302 70.4063 25.9336 72.8577 25.9336C73.972 25.9336 74.8634 25.3771 75.3091 24.8206H75.4206V25.4884C75.4206 27.2693 74.4177 28.271 72.8577 28.271C71.632 28.271 70.7406 27.3806 70.5177 26.6015L68.7349 27.3806C69.292 28.6049 70.6292 30.1632 72.9692 30.1632C75.4206 30.1632 77.4263 28.7163 77.4263 25.2658V16.8067H75.4206V17.5858ZM72.9692 24.1528C71.5206 24.1528 70.2949 22.9284 70.2949 21.2589C70.2949 19.5893 71.5206 18.365 72.9692 18.365C74.4177 18.365 75.532 19.5893 75.532 21.2589C75.532 22.9284 74.4177 24.1528 72.9692 24.1528ZM100.158 11.798H95.1434V25.711H97.2605V20.4797H100.158C102.498 20.4797 104.726 18.8102 104.726 16.1389C104.726 13.4676 102.498 11.798 100.158 11.798ZM100.269 18.4763H97.2605V13.6902H100.269C101.829 13.6902 102.72 15.0258 102.72 16.0276C102.609 17.2519 101.718 18.4763 100.269 18.4763ZM113.083 16.4728C111.523 16.4728 109.963 17.1406 109.406 18.5876L111.3 19.3667C111.746 18.5876 112.415 18.365 113.195 18.365C114.309 18.365 115.312 19.0328 115.423 20.1458V20.2571C115.089 20.0345 114.198 19.7006 113.306 19.7006C111.3 19.7006 109.295 20.8137 109.295 22.8171C109.295 24.7093 110.966 25.9336 112.749 25.9336C114.198 25.9336 114.866 25.2658 115.423 24.598H115.535V25.711H117.54V20.3684C117.318 17.9197 115.423 16.4728 113.083 16.4728ZM112.86 24.1528C112.192 24.1528 111.189 23.8189 111.189 22.9284C111.189 21.8154 112.415 21.4815 113.418 21.4815C114.309 21.4815 114.755 21.7041 115.312 21.9267C115.089 23.2623 113.975 24.1528 112.86 24.1528ZM124.56 16.8067L122.22 22.8171H122.109L119.658 16.8067H117.429L121.106 25.2658L118.989 29.9406H121.106L126.789 16.8067H124.56ZM105.84 25.711H107.958V11.798H105.84V25.711Z" fill="white"/>
<path d="M0.460052 3.0968C0.183948 3.3726 -0.00012207 3.83226 -0.00012207 4.38386V24.701C-0.00012207 25.2526 0.183948 25.7122 0.460052 25.988L0.552088 26.08L11.9644 14.6803V14.5884V14.4965L0.460052 3.0968Z" fill="white"/>
<path d="M15.7378 18.5399L11.9644 14.7706V14.5868V14.4948L15.7378 10.7256L15.8298 10.8175L20.3395 13.3916C21.628 14.1271 21.628 15.3222 20.3395 16.0577L15.7378 18.5399Z" fill="white"/>
<path d="M15.83 18.4476L11.9646 14.5864L0.460205 26.078C0.92038 26.5377 1.56462 26.5377 2.39294 26.1699L15.83 18.4476Z" fill="white"/>
<path d="M15.8293 10.7253L2.39221 3.09493C1.56389 2.63527 0.919647 2.7272 0.459473 3.18686L11.9638 14.5865L15.8293 10.7253Z" fill="white"/>
</svg>
