<svg width="158" height="44" viewBox="0 0 158 44" fill="none" xmlns="http://www.w3.org/2000/svg">
<path d="M63.0359 16.2105H70.0572C73.6945 16.2105 76.3419 14.7979 76.3419 11.3937C76.3419 9.37895 75.5592 8.24421 74.247 7.61895C75.1448 6.83158 75.8124 5.74316 75.8124 4.14526C75.8124 1.71368 74.4542 0 70.2414 0H63.0359V16.2105ZM69.8731 9.56421C71.8989 9.56421 72.6125 10.0505 72.6125 11.1853C72.6125 12.3663 71.8298 12.8526 69.6889 12.8526H66.6041V9.56421H69.8731ZM69.6429 3.3579C71.5996 3.3579 72.1061 3.89053 72.1061 4.95579C72.1061 5.78947 71.3694 6.32211 69.9421 6.32211H66.6041V3.3579H69.6429Z" fill="#1D233A"/>
<path d="M87.2246 11.9495C86.5109 12.8295 85.2448 13.2695 84.1168 13.2695C82.6434 13.2695 81.4233 12.7137 81.101 11.3937H89.3425C89.4806 10.4905 89.5266 9.81895 89.5266 9.44842C89.5266 6.09053 87.0864 3.91368 83.8175 3.91368C79.7659 3.91368 77.6019 6.64632 77.6019 10.1663C77.6019 13.9642 80.2032 16.3958 84.0707 16.3958C86.0735 16.3958 87.9382 15.6084 89.2273 13.9874L87.2246 11.9495ZM83.7024 6.92421C84.9225 6.92421 85.7742 7.36421 86.0735 8.49895H81.1701C81.5845 7.43368 82.4362 6.92421 83.7024 6.92421Z" fill="#1D233A"/>
<path d="M97.0136 12.6211C97.0136 13.0611 96.5762 13.2695 95.7704 13.2695C94.2971 13.2695 92.9619 12.5053 92.3173 11.6716L89.67 13.4779C90.5217 15.0526 92.4785 16.3958 95.4021 16.3958C98.1185 16.3958 100.467 15.2379 100.467 12.5979C100.467 8.33684 93.6756 8.66105 93.6756 7.61895C93.6756 7.17895 94.0899 7.04 94.7115 7.04C96.2078 7.04 97.2898 7.48 98.0725 8.29053L100.352 6.09053C99.5919 4.97895 97.6581 3.91368 95.3791 3.91368C92.1332 3.91368 90.2225 5.32632 90.2225 7.64211C90.2225 11.7411 97.0136 11.44 97.0136 12.6211Z" fill="#1D233A"/>
<path d="M100.929 7.29474H103.208V12.2042C103.208 14.9832 104.935 16.3495 107.444 16.3495C109.079 16.3495 110.368 15.7011 111.196 14.8211L109.815 12.4358C109.171 12.9453 108.549 13.2232 107.766 13.2232C106.869 13.2232 106.546 12.6674 106.546 11.2084V7.29474H110.207V4.16842H106.546V1.36632H103.208V4.16842H100.929V7.29474Z" fill="#1D233A"/>
<path d="M71.4615 34.8526C70.886 35.8021 70.1033 36.4274 68.8602 36.4274C66.7653 36.4274 65.4531 34.9916 65.4531 33.3242C65.4531 31.4253 66.7192 30.1979 68.5379 30.1979C69.758 30.1979 70.5637 30.6611 71.3234 31.7032L73.8096 30.0821C73.0499 28.3453 71.1622 27.0716 68.3307 27.0716C64.5783 27.0716 62 29.7579 62 33.3242C62 37.1221 64.6244 39.5537 68.4918 39.5537C70.7479 39.5537 72.8197 38.4421 73.9017 36.3116L71.4615 34.8526Z" fill="#1D233A"/>
<path d="M73.7801 33.3242C73.7801 36.9368 76.5426 39.5537 80.2489 39.5537C84.0704 39.5537 86.7638 36.9368 86.7638 33.3242C86.7638 29.6884 84.0704 27.0716 80.2489 27.0716C76.4275 27.0716 73.7801 29.6884 73.7801 33.3242ZM77.2332 33.3242C77.2332 31.3326 78.5684 30.1979 80.2489 30.1979C81.9294 30.1979 83.3107 31.3326 83.3107 33.3242C83.3107 35.2695 82.0676 36.4274 80.2489 36.4274C78.4533 36.4274 77.2332 35.0842 77.2332 33.3242Z" fill="#1D233A"/>
<path d="M105.307 31.3558C105.307 28.5768 103.65 27.0947 100.68 27.0947C99.2989 27.0947 98.4471 27.4653 97.5493 28.3916C96.7206 27.5116 95.8228 27.0947 94.4646 27.0947C93.3365 27.0947 92.2315 27.4189 91.587 28.1368V27.3263H88.249V39.3684H91.587V31.7032C91.9093 30.8695 92.6459 30.2211 93.7049 30.2211C94.6027 30.2211 95.1091 30.8463 95.1091 31.7495V39.3684H98.4471V31.68C98.8845 30.6842 99.6442 30.2211 100.427 30.2211C101.67 30.2211 101.969 31.1474 101.969 32.3053V39.3684H105.307V31.3558Z" fill="#1D233A"/>
<path d="M107.268 44H110.606V38.9516C110.974 39.3684 112.033 39.5537 113.184 39.5537C116.822 39.5537 119.17 36.8211 119.17 33.1621C119.17 29.5958 116.914 27.0716 113.276 27.0716C112.356 27.0716 111.228 27.3726 110.606 27.9516V27.3263H107.268V44ZM112.908 30.1979C114.658 30.1979 115.717 31.2863 115.717 33.4168C115.717 35.2463 114.589 36.4274 112.724 36.4274C111.78 36.4274 110.974 35.9642 110.606 35.4084V31.5642C111.043 30.7537 111.803 30.1979 112.908 30.1979Z" fill="#1D233A"/>
<path d="M122.324 31.3558C123.567 30.4758 124.35 30.1979 125.639 30.1979C126.928 30.1979 127.596 30.6842 127.573 31.9116C127.067 31.7263 126.238 31.6105 125.409 31.6105C122.554 31.6105 119.976 32.7916 119.976 35.5705C119.976 37.9558 121.703 39.5074 124.35 39.5074C125.8 39.5074 127.067 38.8821 127.573 38.28V39.3684H130.911V32.0737C130.911 28.9011 129.092 27.0716 126.008 27.0716C123.821 27.0716 121.864 27.7432 120.736 28.9242L122.324 31.3558ZM125.041 36.6126C124.028 36.6126 123.429 36.2189 123.429 35.5705C123.429 34.6905 124.419 34.3895 125.754 34.3895C126.445 34.3895 127.205 34.5516 127.573 34.6905V35.2463C127.182 36.0105 126.169 36.6126 125.041 36.6126Z" fill="#1D233A"/>
<path d="M132.919 39.3684H136.257V31.8189C136.671 30.8 137.477 30.2211 138.559 30.2211C140.147 30.2211 140.907 30.8695 140.907 32.8147V39.3684H144.245V32.6063C144.245 28.7389 142.588 27.0947 139.526 27.0947C137.914 27.0947 136.786 27.5347 136.257 28.1832V27.3263H132.919V39.3684Z" fill="#1D233A"/>
<path d="M158 27.3263H154.432L151.738 34.32L148.262 27.3263H144.372L150.104 38.3495L147.641 44H151.255L158 27.3263Z" fill="#1D233A"/>
<path d="M38.43 20.1159C39.1955 20.8815 39.1955 22.1227 38.43 22.8882L20.8882 40.43C20.1227 41.1955 18.8815 41.1955 18.1159 40.43L0.574154 22.8882C-0.191385 22.1227 -0.191385 20.8815 0.574155 20.1159L18.1159 2.57415C18.8815 1.80861 20.1227 1.80862 20.8882 2.57415L38.43 20.1159Z" fill="#475FEF"/>
<path d="M49.4258 20.1159C50.1914 20.8815 50.1914 22.1227 49.4258 22.8882L31.8841 40.43C31.1185 41.1955 29.8773 41.1955 29.1118 40.43L11.57 22.8882C10.8045 22.1227 10.8045 20.8815 11.57 20.1159L29.1118 2.57415C29.8773 1.80861 31.1185 1.80862 31.8841 2.57415L49.4258 20.1159Z" fill="#F45F4F"/>
</svg>
