<svg width="426" height="319" viewBox="0 0 426 319" fill="none" xmlns="http://www.w3.org/2000/svg">
<mask id="mask0" mask-type="alpha" maskUnits="userSpaceOnUse" x="0" y="0" width="426" height="319">
<rect width="426" height="319" transform="matrix(1 0 0 -1 0 319)" fill="white"/>
</mask>
<g mask="url(#mask0)">
<path fill-rule="evenodd" clip-rule="evenodd" d="M62.0495 0C30.8758 0 5.60457 25.2713 5.60457 56.4449V115.861C3.96379 115.861 2.63379 117.191 2.63379 118.831V142.598C2.63379 144.238 3.96379 145.568 5.60457 145.568V179.732C3.96379 179.732 2.63379 181.063 2.63379 182.703V231.721C2.63379 233.362 3.96379 234.692 5.60457 234.692V256.973C3.96379 256.973 2.63379 258.303 2.63379 259.944V308.962C2.63379 310.602 3.96379 311.932 5.60457 311.932V791.714C5.60457 822.888 30.8758 848.159 62.0495 848.159H366.555C397.729 848.159 423 822.888 423 791.714V56.4449C423 25.2713 397.729 0 366.555 0H62.0495Z" fill="#181818"/>
<mask id="mask1" mask-type="alpha" maskUnits="userSpaceOnUse" x="26" y="19" width="375" height="812">
<path fill-rule="evenodd" clip-rule="evenodd" d="M108.096 24.3101C108.096 21.5486 105.858 19.3101 103.096 19.3101H65.0201C43.6908 19.3101 26.3999 36.6009 26.3999 57.9303V791.714C26.3999 813.043 43.6908 830.334 65.0201 830.334H362.099C383.428 830.334 400.719 813.043 400.719 791.714V57.9303C400.719 36.6009 383.428 19.3101 362.099 19.3101H324.022C321.261 19.3101 319.022 21.5486 319.022 24.3101V25.2516C319.022 38.3774 308.382 49.0179 295.256 49.0179H131.863C118.737 49.0179 108.096 38.3774 108.096 25.2516V24.3101Z" fill="white"/>
</mask>
<g mask="url(#mask1)">
<path d="M26.3999 19.3101H400.719V830.334H26.3999V19.3101Z" fill="white"/>
<path d="M26.4998 19.1591H401.5V831.159H26.4998V19.1591Z" fill="#FAFAFA"/>
<path d="M26.4998 19.1591H401.5V831.159H26.4998V19.1591Z" fill="white"/>
<path fill-rule="evenodd" clip-rule="evenodd" d="M373.497 31.1591H354.002C353.172 31.1591 352.5 31.8271 352.5 32.6591V39.159C352.5 39.9875 353.173 40.6591 354.002 40.6591H373.497C374.327 40.6591 375 39.991 375 39.159V32.6591C375 31.8307 374.326 31.1591 373.497 31.1591ZM353 32.6591C353 32.1048 353.447 31.6591 354.002 31.6591H373.497C374.051 31.6591 374.5 32.1073 374.5 32.6591V39.159C374.5 39.7133 374.053 40.1591 373.497 40.1591H354.002C353.449 40.1591 353 39.7109 353 39.159V32.6591Z" fill="#292A3D"/>
<path fill-rule="evenodd" clip-rule="evenodd" d="M354 32.1591C353.724 32.1591 353.5 32.3829 353.5 32.6591V39.1591C353.5 39.4352 353.724 39.6591 354 39.6591H362.5V32.1591H354Z" fill="#292A3D"/>
<path fill-rule="evenodd" clip-rule="evenodd" d="M377 35.9091C377 36.7997 376.348 37.5365 375.5 37.6591V34.1591C376.348 34.2816 377 35.0184 377 35.9091Z" fill="#292A3D"/>
<path d="M54.2498 40.3641C53.4998 40.3641 52.863 40.1571 52.3396 39.743C51.8162 39.329 51.49 38.7762 51.3611 38.0848H52.6853C52.7869 38.4286 52.9783 38.7001 53.2595 38.8993C53.5408 39.0985 53.8748 39.1981 54.2615 39.1981C54.9099 39.1981 55.4138 38.9169 55.7732 38.3544C56.1365 37.7958 56.324 37.0067 56.3357 35.9872H56.2361C55.8103 36.8427 55.072 37.2704 54.0212 37.2704C53.2166 37.2704 52.5505 37.0048 52.0232 36.4735C51.4998 35.9423 51.238 35.2684 51.238 34.452C51.238 33.5887 51.5251 32.8798 52.0994 32.3251C52.6697 31.7743 53.4041 31.4989 54.3025 31.4989C55.5955 31.4989 56.5212 32.0809 57.0798 33.245C57.4275 33.9286 57.6013 34.786 57.6013 35.8173C57.6013 37.2509 57.3064 38.3661 56.7166 39.163C56.1306 39.9637 55.3083 40.3641 54.2498 40.3641ZM54.3083 36.1571C54.824 36.1571 55.2498 35.995 55.5857 35.6708C55.9216 35.3466 56.0896 34.9344 56.0896 34.4344C56.0896 33.9266 55.9197 33.5028 55.5798 33.163C55.24 32.8231 54.8201 32.6532 54.3201 32.6532C53.8162 32.6532 53.3943 32.8212 53.0544 33.1571C52.7146 33.493 52.5447 33.9091 52.5447 34.4052C52.5447 34.9169 52.7087 35.3368 53.0369 35.6649C53.365 35.993 53.7888 36.1571 54.3083 36.1571Z" fill="#292A3D"/>
<path d="M59.3416 38.3895C59.3416 38.1161 59.4255 37.8934 59.5935 37.7216C59.7654 37.5497 59.988 37.4637 60.2615 37.4637C60.531 37.4637 60.7498 37.5497 60.9177 37.7216C61.0857 37.8934 61.1697 38.1161 61.1697 38.3895C61.1697 38.663 61.0857 38.8856 60.9177 39.0575C60.7498 39.2294 60.531 39.3153 60.2615 39.3153C59.988 39.3153 59.7654 39.2294 59.5935 39.0575C59.4255 38.8856 59.3416 38.663 59.3416 38.3895ZM59.3416 33.9247C59.3416 33.6512 59.4255 33.4286 59.5935 33.2567C59.7654 33.0848 59.988 32.9989 60.2615 32.9989C60.531 32.9989 60.7498 33.0848 60.9177 33.2567C61.0857 33.4286 61.1697 33.6512 61.1697 33.9247C61.1697 34.1981 61.0857 34.4208 60.9177 34.5927C60.7498 34.7645 60.531 34.8505 60.2615 34.8505C59.988 34.8505 59.7654 34.7645 59.5935 34.5927C59.4255 34.4208 59.3416 34.1981 59.3416 33.9247Z" fill="#292A3D"/>
<path d="M67.0056 38.5243H62.8806V37.3055C63.5369 36.1063 64.7107 34.2391 66.4021 31.704H68.2712V37.3524H69.4373V38.5243H68.2712V40.1591H67.0056V38.5243ZM64.1404 37.3817H67.0232V32.8583H66.947C65.9548 34.2958 65.0193 35.7762 64.1404 37.2997V37.3817Z" fill="#292A3D"/>
<path d="M72.9353 33.1161H72.8357L70.7146 34.6161V33.2743L72.9412 31.704H74.2478V40.1591H72.9353V33.1161Z" fill="#292A3D"/>
<path d="M84.8357 37.9149H81.613L80.8337 40.1591H79.4861L82.5388 31.704H83.9509L87.0037 40.1591H85.6091L84.8357 37.9149ZM81.947 36.8134H84.5017L83.2771 33.2391H83.1775L81.947 36.8134Z" fill="#292A3D"/>
<path d="M88.4802 40.1591V31.704H90.0154L92.7048 38.1259H92.8044L95.4998 31.704H97.0349V40.1591H95.8162V34.0536H95.7341L93.2556 39.913H92.2595L89.781 34.0536H89.699V40.1591H88.4802Z" fill="#292A3D"/>
<path d="M338.051 35.7744H336.914C336.7 35.7744 336.534 35.9668 336.534 36.1591V40.7744C336.534 40.9908 336.7 41.1591 336.914 41.1591H338.051C338.241 41.1591 338.431 40.9908 338.431 40.7744V36.1591C338.431 35.9668 338.241 35.7744 338.051 35.7744ZM335.017 38.0821H333.879C333.666 38.0821 333.5 38.2744 333.5 38.4668V40.7744C333.5 40.9908 333.666 41.1591 333.879 41.1591H335.017C335.207 41.1591 335.396 40.9908 335.396 40.7744V38.4668C335.396 38.2744 335.207 38.0821 335.017 38.0821ZM341.086 33.4668H339.948C339.735 33.4668 339.569 33.6591 339.569 33.8514V40.7744C339.569 40.9908 339.735 41.1591 339.948 41.1591H341.086C341.276 41.1591 341.465 40.9908 341.465 40.7744V33.8514C341.465 33.6591 341.276 33.4668 341.086 33.4668ZM344.12 31.1591H342.983C342.769 31.1591 342.603 31.3514 342.603 31.5437V40.7744C342.603 40.9908 342.769 41.1591 342.983 41.1591H344.12C344.31 41.1591 344.5 40.9908 344.5 40.7744V31.5437C344.5 31.3514 344.31 31.1591 344.12 31.1591Z" fill="#292A3D"/>
<path d="M54.5167 82.1591C56.6617 82.1591 58.7547 80.7941 58.7547 77.6091C58.7547 74.4241 56.6617 73.0591 54.5167 73.0591H51.6697V82.1591H54.5167ZM53.3597 74.6191H53.9837C55.4397 74.6191 57.0387 75.1911 57.0387 77.6091C57.0387 80.0271 55.4397 80.5991 53.9837 80.5991H53.3597V74.6191Z" fill="#CBCBCD"/>
<path d="M61.4456 82.1591L62.1086 80.0141H64.9946L65.6576 82.1591H67.4776L64.3966 73.0591H62.7066L59.6256 82.1591H61.4456ZM63.5516 75.2951L64.5136 78.4541H62.5896L63.5516 75.2951Z" fill="#CBCBCD"/>
<path d="M69.7621 78.2851V82.1591H71.4521V78.2851L74.0781 73.0591H72.2581L70.6071 76.5951L68.9561 73.0591H67.1361L69.7621 78.2851Z" fill="#CBCBCD"/>
<path d="M139.113 82.1591H140.829L142.48 76.8031L144.131 82.1591H145.847L148.226 73.0591H146.432L144.911 79.7541L143.208 74.0211H141.752L140.049 79.7541L138.528 73.0591H136.734L139.113 82.1591Z" fill="#1D233A"/>
<path d="M155.587 82.1591V80.5991H151.518V78.0901H154.677V76.5301H151.518V74.6191H155.457V73.0591H149.828V82.1591H155.587Z" fill="#1D233A"/>
<path d="M163.29 82.1591V80.5991H159.221V78.0901H162.38V76.5301H159.221V74.6191H163.16V73.0591H157.531V82.1591H163.29Z" fill="#1D233A"/>
<path d="M166.923 82.1591V77.8171L170.225 82.1591H172.37L168.418 77.1281L172.11 73.0591H170.03L166.923 76.4391V73.0591H165.233V82.1591H166.923Z" fill="#1D233A"/>
<path d="M179.551 283.859V304.159H184.101V283.859H190.891V279.659H172.761V283.859H179.551Z" fill="#E6E6E6"/>
<path d="M196.813 304.159V297.894C196.813 292.189 199.018 290.124 201.538 290.124C202.203 290.124 202.833 290.299 203.358 290.614L204.163 286.589C203.463 286.344 202.833 286.239 202.028 286.239C200.033 286.239 198.073 287.289 196.813 289.389V286.519H192.473V304.159H196.813Z" fill="#E6E6E6"/>
<path d="M205.974 299.084C205.974 302.584 208.354 304.439 211.329 304.439C213.849 304.439 215.529 303.424 216.754 301.919L217.209 304.159H220.779V293.624C220.779 288.024 217.524 286.239 213.359 286.239C209.719 286.239 207.199 288.199 206.639 291.139L210.314 291.979C210.874 290.334 212.134 289.949 213.359 289.949C214.934 289.949 216.439 290.579 216.439 292.539V293.309H213.499C209.019 293.309 205.974 295.584 205.974 299.084ZM210.524 299.014C210.524 297.439 211.679 296.739 213.534 296.739H216.439V297.089C216.439 299.364 214.304 300.729 212.344 300.729C211.119 300.729 210.524 299.854 210.524 299.014Z" fill="#E6E6E6"/>
<path d="M229.182 304.159V297.124C229.182 292.504 231.107 289.949 233.207 289.949C234.712 289.949 235.727 290.754 235.727 292.854V304.159H240.067V291.559C240.067 288.024 237.827 286.239 234.642 286.239C232.367 286.239 230.477 287.499 229.182 289.354V286.519H224.842V304.159H229.182Z" fill="#E6E6E6"/>
<path d="M243.536 299.679C244.376 301.849 246.861 304.439 250.536 304.439C254.351 304.439 256.801 301.744 256.801 298.559C256.801 294.814 252.846 293.974 250.431 293.134C249.346 292.749 248.751 292.224 248.751 291.419C248.751 290.439 249.521 289.949 250.361 289.949C251.341 289.949 252.496 290.404 253.301 291.489L255.891 289.109C254.806 287.394 252.741 286.239 250.361 286.239C246.931 286.239 244.726 288.689 244.726 291.384C244.726 294.149 246.336 295.304 248.296 296.144C250.431 297.089 252.706 297.369 252.706 298.839C252.706 300.134 251.901 300.729 250.536 300.729C248.821 300.729 247.666 299.539 247.001 297.824L243.536 299.679Z" fill="#E6E6E6"/>
<path d="M259.568 299.084C259.568 302.584 261.948 304.439 264.923 304.439C267.443 304.439 269.123 303.424 270.348 301.919L270.803 304.159H274.373V293.624C274.373 288.024 271.118 286.239 266.953 286.239C263.313 286.239 260.793 288.199 260.233 291.139L263.908 291.979C264.468 290.334 265.728 289.949 266.953 289.949C268.528 289.949 270.033 290.579 270.033 292.539V293.309H267.093C262.613 293.309 259.568 295.584 259.568 299.084ZM264.118 299.014C264.118 297.439 265.273 296.739 267.128 296.739H270.033V297.089C270.033 299.364 267.898 300.729 265.938 300.729C264.713 300.729 264.118 299.854 264.118 299.014Z" fill="#E6E6E6"/>
<path d="M278.132 295.339C278.132 300.309 281.002 304.439 286.742 304.439C290.697 304.439 293.392 302.759 294.757 299.399L290.872 297.824C289.927 299.679 288.702 300.729 286.742 300.729C283.977 300.729 282.682 298.454 282.682 295.339C282.682 292.224 283.977 289.949 286.742 289.949C288.702 289.949 289.927 290.999 290.872 292.854L294.757 291.279C293.392 287.919 290.697 286.239 286.742 286.239C281.002 286.239 278.132 290.369 278.132 295.339Z" fill="#E6E6E6"/>
<path d="M300.016 290.229V297.929C300.016 302.304 302.466 304.439 306.491 304.439C307.436 304.439 308.381 304.264 309.361 303.809L308.346 300.309C307.751 300.624 307.261 300.729 306.666 300.729C305.161 300.729 304.356 300.064 304.356 297.859V290.229H309.011V286.519H304.356V279.379L300.016 282.109V286.519H297.286V290.229H300.016Z" fill="#E6E6E6"/>
<path d="M312.112 281.444C312.112 283.019 313.267 284.244 314.912 284.244C316.557 284.244 317.712 283.019 317.712 281.444C317.712 279.869 316.557 278.644 314.912 278.644C313.267 278.644 312.112 279.869 312.112 281.444ZM317.082 304.159V286.519H312.742V304.159H317.082Z" fill="#E6E6E6"/>
<path d="M321.266 295.339C321.266 300.484 324.521 304.439 330.226 304.439C335.931 304.439 339.186 300.484 339.186 295.339C339.186 290.194 335.931 286.239 330.226 286.239C324.521 286.239 321.266 290.194 321.266 295.339ZM325.816 295.339C325.816 292.434 327.426 289.949 330.226 289.949C333.026 289.949 334.636 292.434 334.636 295.339C334.636 298.244 333.026 300.729 330.226 300.729C327.426 300.729 325.816 298.244 325.816 295.339Z" fill="#E6E6E6"/>
<path d="M347.443 304.159V297.124C347.443 292.504 349.368 289.949 351.468 289.949C352.973 289.949 353.988 290.754 353.988 292.854V304.159H358.328V291.559C358.328 288.024 356.088 286.239 352.903 286.239C350.628 286.239 348.738 287.499 347.443 289.354V286.519H343.103V304.159H347.443Z" fill="#E6E6E6"/>
<path d="M361.798 299.679C362.638 301.849 365.123 304.439 368.798 304.439C372.613 304.439 375.063 301.744 375.063 298.559C375.063 294.814 371.108 293.974 368.693 293.134C367.608 292.749 367.013 292.224 367.013 291.419C367.013 290.439 367.783 289.949 368.623 289.949C369.603 289.949 370.758 290.404 371.563 291.489L374.153 289.109C373.068 287.394 371.003 286.239 368.623 286.239C365.193 286.239 362.988 288.689 362.988 291.384C362.988 294.149 364.598 295.304 366.558 296.144C368.693 297.089 370.968 297.369 370.968 298.839C370.968 300.134 370.163 300.729 368.798 300.729C367.083 300.729 365.928 299.539 365.263 297.824L361.798 299.679Z" fill="#E6E6E6"/>
<path d="M237.36 82.1591V76.5431L239.102 81.3271H240.324L242.066 76.5431V82.1591H243.756V73.0591H241.858L239.713 78.7401L237.568 73.0591H235.67V82.1591H237.36Z" fill="#CBCBCD"/>
<path d="M245.759 77.6091C245.759 80.7681 247.748 82.2631 250.049 82.2631C252.35 82.2631 254.339 80.7681 254.339 77.6091C254.339 74.4501 252.35 72.9551 250.049 72.9551C247.748 72.9551 245.759 74.4501 245.759 77.6091ZM247.475 77.6091C247.475 75.4641 248.684 74.5151 250.049 74.5151C251.414 74.5151 252.623 75.4641 252.623 77.6091C252.623 79.7541 251.414 80.7031 250.049 80.7031C248.684 80.7031 247.475 79.7541 247.475 77.6091Z" fill="#CBCBCD"/>
<path d="M257.932 82.1591V76.1531L261.273 82.1591H263.054V73.0591H261.364V79.0651L258.023 73.0591H256.242V82.1591H257.932Z" fill="#CBCBCD"/>
<path d="M267.419 74.6191V82.1591H269.109V74.6191H271.631V73.0591H264.897V74.6191H267.419Z" fill="#CBCBCD"/>
<path d="M275.165 82.1591V78.0771H278.805V82.1591H280.495V73.0591H278.805V76.5171H275.165V73.0591H273.475V82.1591H275.165Z" fill="#CBCBCD"/>
<path d="M347.126 78.2851V82.1591H348.816V78.2851L351.442 73.0591H349.622L347.971 76.5951L346.32 73.0591H344.5L347.126 78.2851Z" fill="#CBCBCD"/>
<path d="M358.547 82.1591V80.5991H354.478V78.0901H357.637V76.5301H354.478V74.6191H358.417V73.0591H352.788V82.1591H358.547Z" fill="#CBCBCD"/>
<path d="M361.561 82.1591L362.224 80.0141H365.11L365.773 82.1591H367.593L364.512 73.0591H362.822L359.741 82.1591H361.561ZM363.667 75.2951L364.629 78.4541H362.705L363.667 75.2951Z" fill="#CBCBCD"/>
<path d="M370.81 82.1591V78.2331H371.694L374.138 82.1591H376.023L373.501 78.0901C374.606 77.7391 375.204 76.8421 375.204 75.6461C375.204 74.1381 374.255 73.0591 372.435 73.0591H369.12V82.1591H370.81ZM370.81 74.6191H372.448C373.059 74.6191 373.514 74.9051 373.514 75.6461C373.514 76.3871 373.059 76.6731 372.448 76.6731H370.81V74.6191Z" fill="#CBCBCD"/>
<g filter="url(#filter0_d)">
<path fill-rule="evenodd" clip-rule="evenodd" d="M358.082 140.494C353.651 135.165 349.167 132.046 344.524 132.159C339.764 132.275 335.652 134.766 331.803 138.645C327.947 142.532 324.468 147.696 320.957 152.964L320.664 153.403C317.275 158.488 313.843 163.637 310.065 167.571C306.173 171.622 301.782 174.524 296.525 174.659C291.355 174.791 287.195 172.858 283.574 169.99C280.192 167.312 277.23 163.775 274.33 160.314C274.152 160.101 273.974 159.889 273.796 159.677C267.557 152.24 261.494 145.448 251.571 146.156C231.098 147.619 216.332 162.721 203.874 185.145C197.39 196.815 186.215 200.136 174.042 203.007C173.01 203.251 171.97 203.491 170.924 203.733C159.546 206.363 147.424 209.166 136.63 217.935C130.759 222.706 126.016 229.126 121.653 236.133C119.474 239.634 117.399 243.264 115.326 246.896L115.209 247.102C113.179 250.66 111.148 254.218 109.037 257.623C100.447 271.48 90.3016 283.175 72.4707 282.659C54.777 282.146 42.7811 272.112 31.4688 257.971C26.7752 252.104 22.1676 245.489 17.3111 238.517C16.3206 237.095 15.3196 235.658 14.3055 234.209C8.30931 225.644 1.83251 216.646 -5.75879 207.811L-4.24179 206.507C3.41691 215.422 9.94011 224.486 15.9439 233.062C16.9653 234.521 17.971 235.965 18.9645 237.391C23.8207 244.363 28.3824 250.912 33.0306 256.722C44.2183 270.706 55.7224 280.172 72.5287 280.659C89.1979 281.143 98.8023 270.338 107.337 256.57C109.429 253.195 111.444 249.664 113.48 246.096L113.589 245.905C115.659 242.277 117.752 238.614 119.955 235.076C124.358 228.005 129.241 221.362 135.369 216.383C146.539 207.307 159.103 204.408 170.439 201.792C171.498 201.547 172.547 201.305 173.583 201.061C185.784 198.182 196.109 195.003 202.126 184.173C214.668 161.597 229.901 145.699 251.428 144.162C262.505 143.37 269.192 151.078 275.328 158.391C275.493 158.588 275.657 158.784 275.822 158.98C278.761 162.487 281.601 165.876 284.816 168.422C288.179 171.085 291.894 172.777 296.474 172.659C300.968 172.544 304.889 170.071 308.622 166.185C312.275 162.382 315.622 157.362 319.053 152.214L319.293 151.854C322.781 146.622 326.365 141.286 330.384 137.236C334.41 133.178 338.985 130.293 344.475 130.159C350.082 130.023 355.099 133.778 359.62 139.215C364.17 144.685 368.414 152.096 372.447 159.756C373.937 162.585 375.396 165.444 376.833 168.26C379.308 173.112 381.719 177.837 384.112 182.065C385.997 185.395 387.85 188.38 389.686 190.832C391.528 193.293 393.315 195.168 395.054 196.327C406.959 204.264 415.767 206.159 418.5 206.159V208.159C415.233 208.159 406.04 206.054 393.945 197.991C391.934 196.65 389.987 194.572 388.085 192.031C386.177 189.481 384.276 186.415 382.372 183.05C379.961 178.79 377.511 173.99 375.019 169.106C373.586 166.299 372.139 163.464 370.677 160.687C366.648 153.035 362.486 145.789 358.082 140.494Z" fill="#475FEF"/>
</g>
<path d="M97.4998 228.159C97.4998 227.054 98.3952 226.159 99.4998 226.159H162.5C163.604 226.159 164.5 227.054 164.5 228.159V252.159C164.5 253.264 163.604 254.159 162.5 254.159H99.4998C98.3952 254.159 97.4998 253.264 97.4998 252.159V228.159Z" fill="#475FEF"/>
<path d="M106.955 241.715C107.202 242.859 108.021 243.847 109.282 244.159V245.329H110.868V244.185C112.168 243.912 113 242.95 113 241.429C113 238.738 109.113 238.933 109.113 237.347C109.113 236.866 109.477 236.515 109.984 236.515C110.517 236.515 110.894 236.801 111.245 237.477L112.61 236.606C112.233 235.813 111.661 235.293 110.868 235.072V233.889H109.282V235.046C108.203 235.345 107.501 236.281 107.501 237.425C107.501 240.311 111.31 240.025 111.31 241.52C111.31 242.352 110.842 242.703 110.127 242.703C109.126 242.703 108.606 241.845 108.32 240.857L106.955 241.715Z" fill="white"/>
<path d="M114.418 241.78C114.561 243.288 115.796 244.263 117.33 244.263C119.137 244.263 120.32 242.976 120.32 241.143C120.32 239.362 119.436 238.127 117.538 238.127C117.031 238.127 116.602 238.257 116.251 238.465L116.459 236.567H119.8V235.059H115.12L114.613 240.181L115.64 240.389C116.069 239.908 116.641 239.57 117.252 239.57C118.188 239.57 118.682 240.116 118.682 241.143C118.682 242.183 118.214 242.755 117.33 242.755C116.732 242.755 116.173 242.482 115.965 241.494L114.418 241.78Z" fill="white"/>
<path d="M121.87 241.78C122.013 243.288 123.248 244.263 124.782 244.263C126.589 244.263 127.772 242.976 127.772 241.143C127.772 239.362 126.888 238.127 124.99 238.127C124.483 238.127 124.054 238.257 123.703 238.465L123.911 236.567H127.252V235.059H122.572L122.065 240.181L123.092 240.389C123.521 239.908 124.093 239.57 124.704 239.57C125.64 239.57 126.134 240.116 126.134 241.143C126.134 242.183 125.666 242.755 124.782 242.755C124.184 242.755 123.625 242.482 123.417 241.494L121.87 241.78Z" fill="white"/>
<path d="M129.241 241.637C129.384 243.158 130.593 244.263 132.283 244.263C134.038 244.263 135.364 243.08 135.364 241.208C135.364 239.596 134.506 238.504 133.102 238.504C132.946 238.504 132.855 238.517 132.738 238.53L134.883 235.631V235.059H129.67V236.567H132.569L130.853 238.92L131.503 239.83C131.776 239.687 131.997 239.635 132.296 239.635C133.128 239.635 133.726 240.181 133.726 241.234C133.726 242.17 133.128 242.755 132.283 242.755C131.451 242.755 131.009 242.248 130.814 241.429L129.241 241.637Z" fill="white"/>
<path d="M136.802 243.145C136.802 243.769 137.27 244.237 137.894 244.237C138.518 244.237 138.986 243.769 138.986 243.145C138.986 242.521 138.518 242.053 137.894 242.053C137.27 242.053 136.802 242.521 136.802 243.145Z" fill="white"/>
<path d="M146.48 244.159V242.651H143.282L145.505 239.752C146.064 239.024 146.285 238.322 146.285 237.594C146.285 236.06 145.297 234.955 143.568 234.955C142.034 234.955 140.942 235.982 140.838 237.373L142.346 237.659C142.45 236.879 142.866 236.463 143.529 236.463C144.27 236.463 144.647 236.918 144.647 237.659C144.647 238.179 144.504 238.621 143.945 239.31L140.695 243.509V244.159H146.48Z" fill="white"/>
<path d="M147.98 241.637C148.123 243.158 149.332 244.263 151.022 244.263C152.777 244.263 154.103 243.08 154.103 241.208C154.103 239.596 153.245 238.504 151.841 238.504C151.685 238.504 151.594 238.517 151.477 238.53L153.622 235.631V235.059H148.409V236.567H151.308L149.592 238.92L150.242 239.83C150.515 239.687 150.736 239.635 151.035 239.635C151.867 239.635 152.465 240.181 152.465 241.234C152.465 242.17 151.867 242.755 151.022 242.755C150.19 242.755 149.748 242.248 149.553 241.429L147.98 241.637Z" fill="white"/>
</g>
<path fill-rule="evenodd" clip-rule="evenodd" d="M259.607 32.6786C262.888 32.6786 265.548 30.0185 265.548 26.7371C265.548 23.4556 262.888 20.7955 259.607 20.7955C256.325 20.7955 253.665 23.4556 253.665 26.7371C253.665 30.0185 256.325 32.6786 259.607 32.6786ZM259.607 30.4505C261.658 30.4505 263.32 28.7879 263.32 26.7371C263.32 24.6862 261.658 23.0236 259.607 23.0236C257.556 23.0236 255.893 24.6862 255.893 26.7371C255.893 28.7879 257.556 30.4505 259.607 30.4505Z" fill="#434343"/>
<path d="M234.355 26.737C234.355 28.7879 232.692 30.4505 230.641 30.4505C228.591 30.4505 226.928 28.7879 226.928 26.737C226.928 24.6861 228.591 23.0236 230.641 23.0236C232.692 23.0236 234.355 24.6861 234.355 26.737Z" fill="#252525"/>
<path d="M155.629 26.737C155.629 28.7879 153.967 30.4505 151.916 30.4505C149.865 30.4505 148.202 28.7879 148.202 26.737C148.202 24.6861 149.865 23.0236 151.916 23.0236C153.967 23.0236 155.629 24.6861 155.629 26.737Z" fill="#252525"/>
</g>
<defs>
<filter id="filter0_d" x="-10.7588" y="129.156" width="434.259" height="162.519" filterUnits="userSpaceOnUse" color-interpolation-filters="sRGB">
<feFlood flood-opacity="0" result="BackgroundImageFix"/>
<feColorMatrix in="SourceAlpha" type="matrix" values="0 0 0 0 0 0 0 0 0 0 0 0 0 0 0 0 0 0 127 0"/>
<feOffset dy="4"/>
<feGaussianBlur stdDeviation="2.5"/>
<feColorMatrix type="matrix" values="0 0 0 0 0.305882 0 0 0 0 0.431373 0 0 0 0 0.968627 0 0 0 0.25 0"/>
<feBlend mode="normal" in2="BackgroundImageFix" result="effect1_dropShadow"/>
<feBlend mode="normal" in="SourceGraphic" in2="effect1_dropShadow" result="shape"/>
</filter>
</defs>
</svg>
