<svg width="324" height="571" viewBox="0 0 324 571" fill="none" xmlns="http://www.w3.org/2000/svg">
<mask id="mask0" mask-type="alpha" maskUnits="userSpaceOnUse" x="0" y="0" width="324" height="571">
<rect width="324" height="571" transform="matrix(1 0 0 -1 0 571)" fill="white"/>
</mask>
<g mask="url(#mask0)">
<path fill-rule="evenodd" clip-rule="evenodd" d="M47.1926 0.0351562C23.483 0.0351562 4.26264 19.2555 4.26264 42.9651V88.1545C3.01472 88.1545 2.00317 89.1661 2.00317 90.414V108.49C2.00317 109.738 3.01472 110.749 4.26264 110.749V136.733C3.01472 136.733 2.00317 137.745 2.00317 138.993V176.274C2.00317 177.522 3.01472 178.533 4.26264 178.533V195.479C3.01472 195.479 2.00317 196.491 2.00317 197.739V235.02C2.00317 236.268 3.01472 237.28 4.26264 237.28V602.184C4.26264 625.894 23.483 645.114 47.1926 645.114H278.788C302.498 645.114 321.718 625.894 321.718 602.184V42.9651C321.718 19.2555 302.498 0.0351562 278.788 0.0351562H47.1926Z" fill="#E6E6E6"/>
<mask id="mask1" mask-type="alpha" maskUnits="userSpaceOnUse" x="20" y="14" width="285" height="618">
<path fill-rule="evenodd" clip-rule="evenodd" d="M82.2143 18.5245C82.2143 16.4243 80.5117 14.7217 78.4115 14.7217H49.452C33.2296 14.7217 20.0789 27.8725 20.0789 44.0948V602.184C20.0789 618.406 33.2297 631.557 49.452 631.557H275.399C291.621 631.557 304.772 618.406 304.772 602.184V44.0948C304.772 27.8725 291.621 14.7217 275.399 14.7217H246.439C244.339 14.7217 242.637 16.4243 242.637 18.5245V19.2406C242.637 29.2236 234.544 37.3164 224.561 37.3164H100.29C90.3071 37.3164 82.2143 29.2236 82.2143 19.2406V18.5245Z" fill="white"/>
</mask>
<g mask="url(#mask1)">
<path d="M20.0789 14.7217H304.772V631.557H20.0789V14.7217Z" fill="white"/>
<path d="M20.1548 14.6068H305.366V632.184H20.1548V14.6068Z" fill="#FAFAFA"/>
<path d="M20.1548 14.6068H305.366V632.184H20.1548V14.6068Z" fill="white"/>
<path fill-rule="evenodd" clip-rule="evenodd" d="M284.068 23.7335H269.241C268.61 23.7335 268.098 24.2416 268.098 24.8744V29.818C268.098 30.4481 268.611 30.9589 269.241 30.9589H284.068C284.699 30.9589 285.211 30.4508 285.211 29.818V24.8744C285.211 24.2443 284.699 23.7335 284.068 23.7335ZM268.479 24.8744C268.479 24.4528 268.819 24.1138 269.241 24.1138H284.068C284.489 24.1138 284.831 24.4547 284.831 24.8744V29.818C284.831 30.2396 284.491 30.5786 284.068 30.5786H269.241C268.82 30.5786 268.479 30.2377 268.479 29.818V24.8744Z" fill="#292A3D"/>
<path fill-rule="evenodd" clip-rule="evenodd" d="M269.239 24.4941C269.029 24.4941 268.859 24.6644 268.859 24.8744V29.8181C268.859 30.0281 269.029 30.1984 269.239 30.1984H275.704V24.4941H269.239Z" fill="#292A3D"/>
<path fill-rule="evenodd" clip-rule="evenodd" d="M286.732 27.3462C286.732 28.0236 286.236 28.584 285.591 28.6772V26.0153C286.236 26.1085 286.732 26.6689 286.732 27.3462Z" fill="#292A3D"/>
<path d="M41.2603 30.7345C40.6899 30.7345 40.2056 30.5771 39.8075 30.2621C39.4094 29.9472 39.1614 29.5268 39.0633 29.001H40.0705C40.1477 29.2624 40.2933 29.4689 40.5072 29.6204C40.7211 29.7719 40.9751 29.8477 41.2692 29.8477C41.7624 29.8477 42.1457 29.6338 42.419 29.206C42.6953 28.7811 42.8379 28.181 42.8468 27.4056H42.7711C42.4472 28.0562 41.8857 28.3815 41.0865 28.3815C40.4745 28.3815 39.968 28.1795 39.5669 27.7754C39.1688 27.3714 38.9697 26.8589 38.9697 26.238C38.9697 25.5814 39.1881 25.0422 39.6248 24.6203C40.0586 24.2014 40.6171 23.9919 41.3004 23.9919C42.2838 23.9919 42.9879 24.4346 43.4128 25.32C43.6772 25.8399 43.8094 26.492 43.8094 27.2763C43.8094 28.3667 43.5851 29.2149 43.1365 29.8209C42.6908 30.43 42.0655 30.7345 41.2603 30.7345ZM41.3049 27.5348C41.6971 27.5348 42.0209 27.4115 42.2764 27.1649C42.5319 26.9183 42.6596 26.6049 42.6596 26.2246C42.6596 25.8384 42.5304 25.516 42.2719 25.2576C42.0135 24.9991 41.6941 24.8699 41.3138 24.8699C40.9306 24.8699 40.6097 24.9976 40.3512 25.2531C40.0927 25.5086 39.9635 25.825 39.9635 26.2023C39.9635 26.5915 40.0883 26.9109 40.3378 27.1605C40.5874 27.41 40.9098 27.5348 41.3049 27.5348Z" fill="#292A3D"/>
<path d="M45.133 29.2327C45.133 29.0247 45.1968 28.8554 45.3246 28.7247C45.4553 28.5939 45.6247 28.5286 45.8326 28.5286C46.0376 28.5286 46.204 28.5939 46.3317 28.7247C46.4595 28.8554 46.5234 29.0247 46.5234 29.2327C46.5234 29.4407 46.4595 29.61 46.3317 29.7407C46.204 29.8715 46.0376 29.9368 45.8326 29.9368C45.6247 29.9368 45.4553 29.8715 45.3246 29.7407C45.1968 29.61 45.133 29.4407 45.133 29.2327ZM45.133 25.8369C45.133 25.6289 45.1968 25.4596 45.3246 25.3289C45.4553 25.1981 45.6247 25.1328 45.8326 25.1328C46.0376 25.1328 46.204 25.1981 46.3317 25.3289C46.4595 25.4596 46.5234 25.6289 46.5234 25.8369C46.5234 26.0449 46.4595 26.2142 46.3317 26.3449C46.204 26.4757 46.0376 26.541 45.8326 26.541C45.6247 26.541 45.4553 26.4757 45.3246 26.3449C45.1968 26.2142 45.133 26.0449 45.133 25.8369Z" fill="#292A3D"/>
<path d="M50.962 29.3352H47.8246V28.4083C48.3238 27.4962 49.2165 26.0761 50.503 24.1479H51.9246V28.4439H52.8114V29.3352H51.9246V30.5785H50.962V29.3352ZM48.7828 28.4662H50.9753V25.0258H50.9174C50.1628 26.1191 49.4512 27.2451 48.7828 28.4038V28.4662Z" fill="#292A3D"/>
<path d="M55.4719 25.2219H55.3961L53.7829 26.3628V25.3422L55.4763 24.1479H56.4701V30.5785H55.4719V25.2219Z" fill="#292A3D"/>
<path d="M64.5229 28.8717H62.0718L61.4791 30.5785H60.4542L62.776 24.1479H63.85L66.1718 30.5785H65.1111L64.5229 28.8717ZM62.3259 28.0339H64.2689L63.3375 25.3155H63.2617L62.3259 28.0339Z" fill="#292A3D"/>
<path d="M67.2948 30.5785V24.1479H68.4624L70.5079 29.0322H70.5836L72.6336 24.1479H73.8012V30.5785H72.8742V25.9349H72.8118L70.9268 30.3914H70.1692L68.2841 25.9349H68.2217V30.5785H67.2948Z" fill="#292A3D"/>
<path d="M257.11 27.2438H256.244C256.082 27.2438 255.956 27.3901 255.956 27.5363V31.0466C255.956 31.2112 256.082 31.3392 256.244 31.3392H257.11C257.254 31.3392 257.398 31.2112 257.398 31.0466V27.5363C257.398 27.3901 257.254 27.2438 257.11 27.2438ZM254.802 28.999H253.936C253.774 28.999 253.648 29.1452 253.648 29.2915V31.0466C253.648 31.2112 253.774 31.3392 253.936 31.3392H254.802C254.946 31.3392 255.09 31.2112 255.09 31.0466V29.2915C255.09 29.1452 254.946 28.999 254.802 28.999ZM259.417 25.4887H258.552C258.39 25.4887 258.264 25.6349 258.264 25.7812V31.0466C258.264 31.2112 258.39 31.3392 258.552 31.3392H259.417C259.562 31.3392 259.706 31.2112 259.706 31.0466V25.7812C259.706 25.6349 259.562 25.4887 259.417 25.4887ZM261.725 23.7335H260.86C260.698 23.7335 260.571 23.8798 260.571 24.026V31.0466C260.571 31.2112 260.698 31.3392 260.86 31.3392H261.725C261.87 31.3392 262.014 31.2112 262.014 31.0466V24.026C262.014 23.8798 261.87 23.7335 261.725 23.7335Z" fill="#292A3D"/>
<g filter="url(#filter0_d)">
<path d="M20.1548 380.438C20.1548 359.435 37.1806 342.41 58.183 342.41H267.338C288.34 342.41 305.366 359.435 305.366 380.438V632.184H20.1548V380.438Z" fill="white"/>
</g>
<path d="M94.2754 378.579C94.483 379.637 95.4025 380.517 96.6582 380.517C97.9831 380.517 98.873 379.706 98.873 378.361C98.873 376.315 95.9167 376.463 95.9167 375.257C95.9167 374.891 96.1935 374.624 96.5791 374.624C96.9845 374.624 97.2713 374.841 97.5382 375.356L98.5764 374.693C98.1908 373.892 97.4987 373.438 96.5791 373.438C95.5014 373.438 94.6907 374.268 94.6907 375.316C94.6907 377.511 97.5876 377.294 97.5876 378.431C97.5876 379.063 97.2317 379.33 96.6879 379.33C95.9266 379.33 95.5311 378.678 95.3136 377.926L94.2754 378.579Z" fill="#1D233A"/>
<path d="M101.285 374.703V380.438H102.571V374.703H104.489V373.517H99.3673V374.703H101.285Z" fill="#1D233A"/>
<path d="M105.617 380.438L106.121 378.806H108.316L108.821 380.438H110.205L107.862 373.517H106.576L104.233 380.438H105.617ZM107.219 375.217L107.951 377.62H106.487L107.219 375.217Z" fill="#1D233A"/>
<path d="M112.355 380.438V377.452H113.027L114.886 380.438H116.32L114.402 377.343C115.242 377.076 115.697 376.394 115.697 375.484C115.697 374.337 114.975 373.517 113.591 373.517H111.07V380.438H112.355ZM112.355 374.703H113.601C114.065 374.703 114.411 374.921 114.411 375.484C114.411 376.048 114.065 376.265 113.601 376.265H112.355V374.703Z" fill="#1D233A"/>
<path d="M119.81 380.438C121.234 380.438 122.094 379.706 122.094 378.352C122.094 377.472 121.719 376.928 121.056 376.661C121.491 376.433 121.738 375.949 121.738 375.385C121.738 374.12 120.938 373.517 119.761 373.517H117.23V380.438H119.81ZM118.515 377.392H119.692C120.493 377.392 120.809 377.729 120.809 378.322C120.809 378.915 120.493 379.251 119.692 379.251H118.515V377.392ZM118.515 374.703H119.662C120.216 374.703 120.503 374.891 120.503 375.455C120.503 376.018 120.206 376.206 119.692 376.206H118.515V374.703Z" fill="#1D233A"/>
<path d="M123.143 377.808C123.143 379.657 124.221 380.517 125.724 380.517C127.227 380.517 128.305 379.657 128.305 377.808V373.517H127.019V377.827C127.019 378.826 126.584 379.33 125.724 379.33C124.864 379.33 124.429 378.826 124.429 377.827V373.517H123.143V377.808Z" fill="#1D233A"/>
<path d="M129.483 376.977C129.483 379.301 131.025 380.517 132.755 380.517C134.268 380.517 135.296 379.755 135.623 378.421L134.466 378.124C134.199 378.826 133.714 379.33 132.755 379.33C131.688 379.33 130.788 378.579 130.788 376.977C130.788 375.375 131.688 374.624 132.755 374.624C133.714 374.624 134.199 375.128 134.466 375.83L135.623 375.534C135.296 374.199 134.268 373.438 132.755 373.438C131.025 373.438 129.483 374.654 129.483 376.977Z" fill="#1D233A"/>
<path d="M138.039 380.438V377.135L140.55 380.438H142.182L139.176 376.611L141.984 373.517H140.402L138.039 376.087V373.517H136.753V380.438H138.039Z" fill="#1D233A"/>
<path d="M142.563 378.579C142.771 379.637 143.69 380.517 144.946 380.517C146.271 380.517 147.161 379.706 147.161 378.361C147.161 376.315 144.204 376.463 144.204 375.257C144.204 374.891 144.481 374.624 144.867 374.624C145.272 374.624 145.559 374.841 145.826 375.356L146.864 374.693C146.478 373.892 145.786 373.438 144.867 373.438C143.789 373.438 142.978 374.268 142.978 375.316C142.978 377.511 145.875 377.294 145.875 378.431C145.875 379.063 145.519 379.33 144.975 379.33C144.214 379.33 143.819 378.678 143.601 377.926L142.563 378.579Z" fill="#1D233A"/>
<path d="M94.3174 390.705C94.3174 392.508 95.5039 393.428 96.7816 393.428C97.9148 393.428 98.6602 392.827 98.934 391.816L98.143 391.618C97.8768 392.295 97.5041 392.637 96.7816 392.637C95.8841 392.637 95.1692 392.014 95.1692 390.705C95.1692 389.397 95.8841 388.774 96.7816 388.774C97.5041 388.774 97.8768 389.116 98.143 389.793L98.934 389.595C98.6602 388.584 97.9148 387.983 96.7816 387.983C95.5039 387.983 94.3174 388.903 94.3174 390.705Z" fill="#A5A7AD"/>
<path d="M99.5165 390.705C99.5165 392.523 100.657 393.428 101.958 393.428C103.259 393.428 104.399 392.523 104.399 390.705C104.399 388.888 103.259 387.983 101.958 387.983C100.657 387.983 99.5165 388.888 99.5165 390.705ZM100.368 390.705C100.368 389.397 101.106 388.774 101.958 388.774C102.81 388.774 103.548 389.397 103.548 390.705C103.548 392.014 102.81 392.637 101.958 392.637C101.106 392.637 100.368 392.014 100.368 390.705Z" fill="#A5A7AD"/>
<path d="M106.139 393.367V391.002H108.064V390.211H106.139V388.834H108.527V388.044H105.303V393.367H106.139Z" fill="#A5A7AD"/>
<path d="M110.224 393.367V391.002H112.149V390.211H110.224V388.834H112.613V388.044H109.388V393.367H110.224Z" fill="#A5A7AD"/>
<path d="M116.705 393.367V392.576H114.309V390.934H116.18V390.143H114.309V388.834H116.629V388.044H113.473V393.367H116.705Z" fill="#A5A7AD"/>
<path d="M120.857 393.367V392.576H118.461V390.934H120.332V390.143H118.461V388.834H120.781V388.044H117.625V393.367H120.857Z" fill="#A5A7AD"/>
<path d="M270.048 390.705V394.888H270.854V389.565H270.527L269.051 390.447V391.299L270.048 390.705Z" fill="#A5A7AD"/>
<path d="M275.07 394.888V394.158H273.016L274.53 392.234C274.834 391.846 274.971 391.435 274.971 391.017C274.971 390.066 274.325 389.504 273.427 389.504C272.56 389.504 271.936 390.112 271.876 390.903L272.636 391.048C272.697 390.561 272.963 390.234 273.427 390.234C273.914 390.234 274.157 390.561 274.157 391.048C274.157 391.359 274.081 391.603 273.731 392.036L271.769 394.554V394.888H275.07Z" fill="#A5A7AD"/>
<path d="M277.877 393.466C278.059 394.318 278.698 394.949 279.633 394.949C280.584 394.949 281.299 394.303 281.299 393.329C281.299 391.686 279.017 391.892 279.017 390.842C279.017 390.53 279.23 390.264 279.573 390.264C279.892 390.264 280.158 390.462 280.364 390.85L281.04 390.401C280.759 389.892 280.303 389.504 279.573 389.504C278.797 389.504 278.181 390.097 278.181 390.903C278.181 392.554 280.447 392.31 280.447 393.36C280.447 393.839 280.12 394.158 279.633 394.158C279.033 394.158 278.706 393.626 278.561 393.033L277.877 393.466Z" fill="#A5A7AD"/>
<path d="M285.471 394.888V394.097H283.076V392.455H284.947V391.664H283.076V390.355H285.395V389.565H282.239V394.888H285.471Z" fill="#A5A7AD"/>
<path d="M287.227 394.888V392.713H288.3C289.357 392.713 289.95 392.036 289.95 391.139C289.95 390.249 289.357 389.565 288.3 389.565H286.391V394.888H287.227ZM287.227 390.355H288.338C288.825 390.355 289.098 390.645 289.098 391.139C289.098 391.633 288.825 391.922 288.338 391.922H287.227V390.355Z" fill="#A5A7AD"/>
<path d="M263.634 379.359V378.291H259.946V379.359H263.634Z" fill="#1D233A"/>
<path d="M269.308 381.959V380.812H266.876L268.567 378.607C268.992 378.053 269.16 377.52 269.16 376.966C269.16 375.799 268.408 374.959 267.093 374.959C265.927 374.959 265.096 375.74 265.017 376.798L266.164 377.015C266.243 376.422 266.559 376.106 267.064 376.106C267.627 376.106 267.914 376.452 267.914 377.015C267.914 377.411 267.805 377.747 267.38 378.271L264.908 381.465V381.959H269.308Z" fill="#1D233A"/>
<path d="M270.556 378.498C270.556 380.713 271.456 382.038 273.107 382.038C274.758 382.038 275.658 380.713 275.658 378.498C275.658 376.284 274.758 374.959 273.107 374.959C271.456 374.959 270.556 376.284 270.556 378.498ZM271.782 378.498C271.782 376.946 272.198 376.106 273.107 376.106C274.017 376.106 274.432 376.946 274.432 378.498C274.432 380.051 274.017 380.891 273.107 380.891C272.198 380.891 271.782 380.051 271.782 378.498Z" fill="#1D233A"/>
<path d="M276.692 381.188C276.692 381.662 277.048 382.018 277.522 382.018C277.997 382.018 278.353 381.662 278.353 381.188C278.353 380.713 277.997 380.357 277.522 380.357C277.048 380.357 276.692 380.713 276.692 381.188Z" fill="#1D233A"/>
<path d="M279.654 377.213C279.654 378.558 280.623 379.467 281.889 379.467H282.047L280.544 382.038H281.928L283.945 378.429C284.143 378.083 284.281 377.638 284.281 377.213C284.281 375.908 283.273 374.959 281.968 374.959C280.643 374.959 279.654 375.928 279.654 377.213ZM280.9 377.213C280.9 376.541 281.374 376.106 281.968 376.106C282.551 376.106 283.035 376.541 283.035 377.213C283.035 377.925 282.561 378.32 281.968 378.32C281.374 378.32 280.9 377.925 280.9 377.213Z" fill="#1D233A"/>
<path d="M285.204 378.498C285.204 380.713 286.104 382.038 287.755 382.038C289.406 382.038 290.306 380.713 290.306 378.498C290.306 376.284 289.406 374.959 287.755 374.959C286.104 374.959 285.204 376.284 285.204 378.498ZM286.43 378.498C286.43 376.946 286.845 376.106 287.755 376.106C288.664 376.106 289.08 376.946 289.08 378.498C289.08 380.051 288.664 380.891 287.755 380.891C286.845 380.891 286.43 380.051 286.43 378.498Z" fill="#1D233A"/>
<path d="M39.5149 315.452C39.7225 316.51 40.642 317.39 41.8977 317.39C43.2226 317.39 44.1125 316.579 44.1125 315.235C44.1125 313.188 41.1562 313.336 41.1562 312.13C41.1562 311.764 41.433 311.497 41.8186 311.497C42.224 311.497 42.5108 311.715 42.7777 312.229L43.8159 311.566C43.4303 310.766 42.7382 310.311 41.8186 310.311C40.7409 310.311 39.9302 311.141 39.9302 312.189C39.9302 314.384 42.8271 314.167 42.8271 315.304C42.8271 315.937 42.4712 316.204 41.9274 316.204C41.1661 316.204 40.7706 315.551 40.5531 314.8L39.5149 315.452Z" fill="#1D233A"/>
<path d="M46.8354 317.311V314.602H48.1603C49.6236 314.602 50.3256 313.712 50.3256 312.496C50.3256 311.28 49.6236 310.39 48.1603 310.39H45.55V317.311H46.8354ZM46.8354 311.576H48.1108C48.6744 311.576 49.0205 311.863 49.0205 312.496C49.0205 313.129 48.6744 313.415 48.1108 313.415H46.8354V311.576Z" fill="#1D233A"/>
<path d="M56.1746 317.311V316.125H53.0798V314.216H55.4825V313.03H53.0798V311.576H56.0757V310.39H51.7945V317.311H56.1746Z" fill="#1D233A"/>
<path d="M58.9381 317.311V312.743L61.4791 317.311H62.8337V310.39H61.5483V314.958L59.0073 310.39H57.6527V317.311H58.9381Z" fill="#1D233A"/>
<path d="M66.7094 317.311C68.3408 317.311 69.9327 316.273 69.9327 313.85C69.9327 311.428 68.3408 310.39 66.7094 310.39H64.5441V317.311H66.7094ZM65.8295 311.576H66.3041C67.4114 311.576 68.6276 312.011 68.6276 313.85C68.6276 315.689 67.4114 316.125 66.3041 316.125H65.8295V311.576Z" fill="#1D233A"/>
<path d="M72.6629 317.311V310.39H71.3776V317.311H72.6629Z" fill="#1D233A"/>
<path d="M75.6534 317.311V312.743L78.1945 317.311H79.549V310.39H78.2637V314.958L75.7227 310.39H74.3681V317.311H75.6534Z" fill="#1D233A"/>
<path d="M81.1532 313.85C81.1532 316.214 82.6758 317.39 84.3468 317.39C85.2268 317.39 85.7607 316.975 86.0276 316.569L86.1364 317.311H87.2141V313.821H84.683V314.889H85.9683C85.8892 315.512 85.4344 316.204 84.416 316.204C83.3383 316.204 82.4583 315.512 82.4583 313.85C82.4583 312.239 83.3383 311.497 84.4457 311.497C85.2861 311.497 85.82 312.011 86.1463 312.802L87.3229 312.496C86.9571 311.23 85.998 310.311 84.4457 310.311C82.7352 310.311 81.1532 311.487 81.1532 313.85Z" fill="#1D233A"/>
<path d="M88.5147 315.452C88.7223 316.51 89.6418 317.39 90.8975 317.39C92.2224 317.39 93.1123 316.579 93.1123 315.235C93.1123 313.188 90.156 313.336 90.156 312.13C90.156 311.764 90.4328 311.497 90.8184 311.497C91.2238 311.497 91.5106 311.715 91.7775 312.229L92.8157 311.566C92.4301 310.766 91.738 310.311 90.8184 310.311C89.7407 310.311 88.93 311.141 88.93 312.189C88.93 314.384 91.8269 314.167 91.8269 315.304C91.8269 315.937 91.471 316.204 90.9272 316.204C90.1659 316.204 89.7704 315.551 89.5529 314.8L88.5147 315.452Z" fill="#1D233A"/>
<path d="M121.964 317.311V310.39H120.678V317.311H121.964Z" fill="#A5A7AD"/>
<path d="M124.954 317.311V312.743L127.495 317.311H128.85V310.39H127.565V314.958L125.024 310.39H123.669V317.311H124.954Z" fill="#A5A7AD"/>
<path d="M130.454 313.85C130.454 316.174 131.997 317.39 133.727 317.39C135.24 317.39 136.268 316.629 136.594 315.294L135.437 314.997C135.17 315.699 134.686 316.204 133.727 316.204C132.659 316.204 131.759 315.452 131.759 313.85C131.759 312.249 132.659 311.497 133.727 311.497C134.686 311.497 135.17 312.002 135.437 312.704L136.594 312.407C136.268 311.072 135.24 310.311 133.727 310.311C131.997 310.311 130.454 311.527 130.454 313.85Z" fill="#A5A7AD"/>
<path d="M137.809 313.85C137.809 316.253 139.322 317.39 141.072 317.39C142.822 317.39 144.335 316.253 144.335 313.85C144.335 311.448 142.822 310.311 141.072 310.311C139.322 310.311 137.809 311.448 137.809 313.85ZM139.114 313.85C139.114 312.219 140.034 311.497 141.072 311.497C142.11 311.497 143.029 312.219 143.029 313.85C143.029 315.482 142.11 316.204 141.072 316.204C140.034 316.204 139.114 315.482 139.114 313.85Z" fill="#A5A7AD"/>
<path d="M147.28 317.311V313.04L148.605 316.678H149.534L150.859 313.04V317.311H152.144V310.39H150.701L149.069 314.711L147.438 310.39H145.994V317.311H147.28Z" fill="#A5A7AD"/>
<path d="M158.231 317.311V316.125H155.137V314.216H157.539V313.03H155.137V311.576H158.132V310.39H153.851V317.311H158.231Z" fill="#A5A7AD"/>
<path d="M41.4634 62.5223C43.0948 62.5223 44.6867 61.4842 44.6867 59.0618C44.6867 56.6394 43.0948 55.6012 41.4634 55.6012H39.2981V62.5223H41.4634ZM40.5834 56.7877H41.058C42.1654 56.7877 43.3816 57.2227 43.3816 59.0618C43.3816 60.9008 42.1654 61.3358 41.058 61.3358H40.5834V56.7877Z" fill="#CBCBCD"/>
<path d="M46.7333 62.5223L47.2375 60.8909H49.4325L49.9368 62.5223H51.321L48.9777 55.6012H47.6924L45.3491 62.5223H46.7333ZM48.335 57.3018L49.0667 59.7044H47.6034L48.335 57.3018Z" fill="#CBCBCD"/>
<path d="M53.0585 59.5759V62.5223H54.3439V59.5759L56.3411 55.6012H54.9569L53.7012 58.2905L52.4455 55.6012H51.0613L53.0585 59.5759Z" fill="#CBCBCD"/>
<path d="M105.804 62.5223H107.109L108.365 58.4487L109.621 62.5223H110.926L112.735 55.6012H111.371L110.214 60.6932L108.919 56.3329H107.811L106.516 60.6932L105.359 55.6012H103.995L105.804 62.5223Z" fill="#1D233A"/>
<path d="M118.334 62.5223V61.3358H115.239V59.4276H117.642V58.2411H115.239V56.7877H118.235V55.6012H113.954V62.5223H118.334Z" fill="#1D233A"/>
<path d="M124.192 62.5223V61.3358H121.097V59.4276H123.5V58.2411H121.097V56.7877H124.093V55.6012H119.812V62.5223H124.192Z" fill="#1D233A"/>
<path d="M126.956 62.5223V59.22L129.467 62.5223H131.098L128.093 58.6959L130.901 55.6012H129.319L126.956 58.1719V55.6012H125.67V62.5223H126.956Z" fill="#1D233A"/>
<path d="M136.56 215.928V231.367H140.021V215.928H145.185V212.734H131.396V215.928H136.56Z" fill="#E6E6E6"/>
<path d="M149.689 231.367V226.602C149.689 222.263 151.366 220.693 153.283 220.693C153.789 220.693 154.268 220.826 154.667 221.065L155.279 218.004C154.747 217.818 154.268 217.738 153.655 217.738C152.138 217.738 150.647 218.537 149.689 220.134V217.951H146.388V231.367H149.689Z" fill="#E6E6E6"/>
<path d="M156.656 227.507C156.656 230.169 158.467 231.58 160.729 231.58C162.646 231.58 163.924 230.808 164.855 229.664L165.201 231.367H167.917V223.355C167.917 219.096 165.441 217.738 162.273 217.738C159.505 217.738 157.588 219.229 157.162 221.465L159.957 222.104C160.383 220.853 161.341 220.56 162.273 220.56C163.471 220.56 164.616 221.039 164.616 222.53V223.115H162.38C158.972 223.115 156.656 224.845 156.656 227.507ZM160.117 227.454C160.117 226.256 160.995 225.724 162.406 225.724H164.616V225.99C164.616 227.72 162.992 228.759 161.501 228.759C160.57 228.759 160.117 228.093 160.117 227.454Z" fill="#E6E6E6"/>
<path d="M174.307 231.367V226.017C174.307 222.503 175.771 220.56 177.368 220.56C178.513 220.56 179.285 221.172 179.285 222.769V231.367H182.586V221.784C182.586 219.096 180.882 217.738 178.46 217.738C176.73 217.738 175.292 218.696 174.307 220.107V217.951H171.006V231.367H174.307Z" fill="#E6E6E6"/>
<path d="M185.225 227.96C185.863 229.61 187.753 231.58 190.549 231.58C193.45 231.58 195.313 229.531 195.313 227.108C195.313 224.26 192.305 223.621 190.469 222.982C189.643 222.689 189.191 222.29 189.191 221.678C189.191 220.932 189.777 220.56 190.415 220.56C191.161 220.56 192.039 220.906 192.651 221.731L194.621 219.921C193.796 218.616 192.226 217.738 190.415 217.738C187.807 217.738 186.13 219.601 186.13 221.651C186.13 223.754 187.354 224.633 188.845 225.271C190.469 225.99 192.199 226.203 192.199 227.321C192.199 228.306 191.587 228.759 190.549 228.759C189.244 228.759 188.366 227.854 187.86 226.549L185.225 227.96Z" fill="#E6E6E6"/>
<path d="M197.418 227.507C197.418 230.169 199.228 231.58 201.491 231.58C203.407 231.58 204.685 230.808 205.617 229.664L205.963 231.367H208.678V223.355C208.678 219.096 206.202 217.738 203.035 217.738C200.266 217.738 198.35 219.229 197.924 221.465L200.719 222.104C201.145 220.853 202.103 220.56 203.035 220.56C204.233 220.56 205.377 221.039 205.377 222.53V223.115H203.141C199.734 223.115 197.418 224.845 197.418 227.507ZM200.878 227.454C200.878 226.256 201.757 225.724 203.168 225.724H205.377V225.99C205.377 227.72 203.753 228.759 202.263 228.759C201.331 228.759 200.878 228.093 200.878 227.454Z" fill="#E6E6E6"/>
<path d="M211.537 224.659C211.537 228.439 213.72 231.58 218.085 231.58C221.093 231.58 223.143 230.303 224.181 227.747L221.226 226.549C220.508 227.96 219.576 228.759 218.085 228.759C215.982 228.759 214.997 227.028 214.997 224.659C214.997 222.29 215.982 220.56 218.085 220.56C219.576 220.56 220.508 221.358 221.226 222.769L224.181 221.571C223.143 219.016 221.093 217.738 218.085 217.738C213.72 217.738 211.537 220.879 211.537 224.659Z" fill="#E6E6E6"/>
<path d="M228.181 220.773V226.629C228.181 229.956 230.044 231.58 233.106 231.58C233.824 231.58 234.543 231.447 235.289 231.101L234.517 228.439C234.064 228.679 233.691 228.759 233.239 228.759C232.094 228.759 231.482 228.253 231.482 226.576V220.773H235.022V217.951H231.482V212.521L228.181 214.597V217.951H226.105V220.773H228.181Z" fill="#E6E6E6"/>
<path d="M237.381 214.091C237.381 215.289 238.259 216.221 239.51 216.221C240.762 216.221 241.64 215.289 241.64 214.091C241.64 212.893 240.762 211.962 239.51 211.962C238.259 211.962 237.381 212.893 237.381 214.091ZM241.161 231.367V217.951H237.86V231.367H241.161Z" fill="#E6E6E6"/>
<path d="M244.343 224.659C244.343 228.572 246.819 231.58 251.158 231.58C255.497 231.58 257.973 228.572 257.973 224.659C257.973 220.746 255.497 217.738 251.158 217.738C246.819 217.738 244.343 220.746 244.343 224.659ZM247.804 224.659C247.804 222.45 249.028 220.56 251.158 220.56C253.288 220.56 254.512 222.45 254.512 224.659C254.512 226.869 253.288 228.759 251.158 228.759C249.028 228.759 247.804 226.869 247.804 224.659Z" fill="#E6E6E6"/>
<path d="M264.253 231.367V226.017C264.253 222.503 265.717 220.56 267.314 220.56C268.459 220.56 269.231 221.172 269.231 222.769V231.367H272.531V221.784C272.531 219.096 270.828 217.738 268.405 217.738C266.675 217.738 265.238 218.696 264.253 220.107V217.951H260.952V231.367H264.253Z" fill="#E6E6E6"/>
<path d="M275.17 227.96C275.809 229.61 277.699 231.58 280.494 231.58C283.396 231.58 285.259 229.531 285.259 227.108C285.259 224.26 282.251 223.621 280.414 222.982C279.589 222.689 279.136 222.29 279.136 221.678C279.136 220.932 279.722 220.56 280.361 220.56C281.106 220.56 281.985 220.906 282.597 221.731L284.567 219.921C283.742 218.616 282.171 217.738 280.361 217.738C277.752 217.738 276.075 219.601 276.075 221.651C276.075 223.754 277.3 224.633 278.79 225.271C280.414 225.99 282.144 226.203 282.144 227.321C282.144 228.306 281.532 228.759 280.494 228.759C279.19 228.759 278.311 227.854 277.805 226.549L275.17 227.96Z" fill="#E6E6E6"/>
<path d="M180.527 62.5223V58.251L181.852 61.8895H182.781L184.106 58.251V62.5223H185.392V55.6012H183.948L182.317 59.922L180.685 55.6012H179.242V62.5223H180.527Z" fill="#CBCBCD"/>
<path d="M186.915 59.0618C186.915 61.4644 188.428 62.6014 190.178 62.6014C191.928 62.6014 193.441 61.4644 193.441 59.0618C193.441 56.6591 191.928 55.5221 190.178 55.5221C188.428 55.5221 186.915 56.6591 186.915 59.0618ZM188.22 59.0618C188.22 57.4303 189.14 56.7086 190.178 56.7086C191.216 56.7086 192.136 57.4303 192.136 59.0618C192.136 60.6932 191.216 61.4149 190.178 61.4149C189.14 61.4149 188.22 60.6932 188.22 59.0618Z" fill="#CBCBCD"/>
<path d="M196.173 62.5223V57.9544L198.714 62.5223H200.069V55.6012H198.784V60.1691L196.243 55.6012H194.888V62.5223H196.173Z" fill="#CBCBCD"/>
<path d="M203.389 56.7877V62.5223H204.674V56.7877H206.592V55.6012H201.471V56.7877H203.389Z" fill="#CBCBCD"/>
<path d="M209.28 62.5223V59.4177H212.049V62.5223H213.334V55.6012H212.049V58.2312H209.28V55.6012H207.995V62.5223H209.28Z" fill="#CBCBCD"/>
<path d="M264.011 59.5759V62.5223H265.297V59.5759L267.294 55.6012H265.91L264.654 58.2905L263.398 55.6012H262.014L264.011 59.5759Z" fill="#CBCBCD"/>
<path d="M272.698 62.5223V61.3358H269.603V59.4276H272.006V58.2411H269.603V56.7877H272.599V55.6012H268.318V62.5223H272.698Z" fill="#CBCBCD"/>
<path d="M274.99 62.5223L275.495 60.8909H277.689L278.194 62.5223H279.578L277.235 55.6012H275.949L273.606 62.5223H274.99ZM276.592 57.3018L277.324 59.7044H275.86L276.592 57.3018Z" fill="#CBCBCD"/>
<path d="M282.025 62.5223V59.5364H282.697L284.556 62.5223H285.989L284.071 59.4276C284.912 59.1606 285.366 58.4784 285.366 57.5688C285.366 56.4218 284.645 55.6012 283.26 55.6012H280.739V62.5223H282.025ZM282.025 56.7877H283.27C283.735 56.7877 284.081 57.0052 284.081 57.5688C284.081 58.1324 283.735 58.3499 283.27 58.3499H282.025V56.7877Z" fill="#CBCBCD"/>
<g filter="url(#filter1_d)">
<path fill-rule="evenodd" clip-rule="evenodd" d="M272.344 106.89C268.974 102.836 265.564 100.464 262.032 100.55C258.412 100.639 255.285 102.533 252.358 105.483C249.424 108.44 246.779 112.368 244.108 116.374L243.885 116.708C241.308 120.575 238.697 124.492 235.824 127.483C232.864 130.565 229.524 132.772 225.526 132.874C221.594 132.975 218.43 131.504 215.676 129.323C213.104 127.286 210.851 124.596 208.645 121.964C208.51 121.802 208.375 121.641 208.239 121.479C203.494 115.823 198.883 110.657 191.336 111.196C175.765 112.309 164.534 123.794 155.059 140.849C150.128 149.726 141.628 152.251 132.37 154.435C131.585 154.62 130.794 154.803 129.998 154.987C121.345 156.988 112.125 159.119 103.916 165.789C99.4505 169.417 95.8433 174.3 92.5251 179.629C90.8673 182.292 89.2893 185.053 87.713 187.815L87.6236 187.972C86.0796 190.678 84.5354 193.384 82.9297 195.974C76.3964 206.513 68.6801 215.408 55.1186 215.015C41.6614 214.625 32.5378 206.993 23.9341 196.239C20.3643 191.776 16.8599 186.745 13.1663 181.442C12.4129 180.361 11.6516 179.268 10.8803 178.166C6.3198 171.652 1.39378 164.809 -4.37988 158.088L-3.22611 157.097C2.59882 163.877 7.56013 170.771 12.1264 177.294C12.9032 178.403 13.6681 179.501 14.4237 180.586C18.1172 185.888 21.5867 190.869 25.1219 195.288C33.6309 205.925 42.3804 213.124 55.1627 213.494C67.8407 213.862 75.1455 205.644 81.6368 195.173C83.2279 192.606 84.7602 189.921 86.3088 187.207L86.3918 187.061C87.9661 184.302 89.5582 181.516 91.2338 178.825C94.5824 173.447 98.2957 168.395 102.957 164.608C111.453 157.705 121.008 155.5 129.63 153.51C130.435 153.324 131.233 153.14 132.021 152.955C141.301 150.765 149.154 148.347 153.729 140.111C163.268 122.94 174.854 110.849 191.227 109.679C199.652 109.077 204.738 114.939 209.405 120.502C209.53 120.651 209.655 120.8 209.78 120.949C212.015 123.617 214.175 126.194 216.621 128.131C219.178 130.156 222.004 131.443 225.487 131.354C228.905 131.266 231.888 129.385 234.727 126.429C237.505 123.537 240.05 119.719 242.66 115.803L242.842 115.53C245.495 111.55 248.222 107.492 251.278 104.412C254.34 101.325 257.82 99.1314 261.995 99.0296C266.26 98.9256 270.075 101.782 273.514 105.917C276.974 110.078 280.202 115.714 283.27 121.539C284.403 123.692 285.512 125.866 286.605 128.008C288.488 131.698 290.322 135.291 292.142 138.507C293.575 141.04 294.985 143.31 296.381 145.175C297.782 147.047 299.141 148.473 300.464 149.354C309.518 155.391 316.217 156.832 318.296 156.832V158.353C315.811 158.353 308.819 156.753 299.62 150.62C298.091 149.6 296.61 148.019 295.163 146.087C293.712 144.148 292.266 141.816 290.818 139.256C288.984 136.016 287.121 132.366 285.226 128.651C284.136 126.516 283.036 124.36 281.924 122.248C278.859 116.428 275.694 110.917 272.344 106.89Z" fill="#475FEF"/>
</g>
<path d="M74.1548 173.565C74.1548 172.724 74.8358 172.043 75.6759 172.043H123.591C124.431 172.043 125.113 172.724 125.113 173.565V191.818C125.113 192.658 124.431 193.339 123.591 193.339H75.6759C74.8358 193.339 74.1548 192.658 74.1548 191.818V173.565Z" fill="#475FEF"/>
<path d="M81.3457 183.875C81.5336 184.745 82.1565 185.496 83.1155 185.734V186.623H84.3218V185.753C85.3105 185.546 85.9433 184.814 85.9433 183.657C85.9433 181.611 82.987 181.759 82.987 180.553C82.987 180.187 83.2638 179.92 83.6494 179.92C84.0548 179.92 84.3416 180.137 84.6085 180.652L85.6467 179.989C85.36 179.386 84.9249 178.99 84.3218 178.822V177.923H83.1155V178.803C82.2949 179.03 81.761 179.742 81.761 180.612C81.761 182.807 84.658 182.589 84.658 183.726C84.658 184.359 84.302 184.626 83.7582 184.626C82.9969 184.626 82.6014 183.974 82.3839 183.222L81.3457 183.875Z" fill="white"/>
<path d="M87.0221 183.924C87.1309 185.071 88.0702 185.813 89.2369 185.813C90.6112 185.813 91.511 184.834 91.511 183.44C91.511 182.085 90.8386 181.146 89.3951 181.146C89.0095 181.146 88.6832 181.245 88.4162 181.403L88.5744 179.959H91.1155V178.812H87.556L87.1704 182.708L87.9515 182.866C88.2778 182.5 88.7128 182.243 89.1775 182.243C89.8894 182.243 90.2652 182.659 90.2652 183.44C90.2652 184.231 89.9092 184.666 89.2369 184.666C88.7821 184.666 88.3569 184.458 88.1987 183.707L87.0221 183.924Z" fill="white"/>
<path d="M92.6899 183.924C92.7987 185.071 93.738 185.813 94.9047 185.813C96.279 185.813 97.1788 184.834 97.1788 183.44C97.1788 182.085 96.5064 181.146 95.0629 181.146C94.6773 181.146 94.351 181.245 94.0841 181.403L94.2422 179.959H96.7833V178.812H93.2239L92.8383 182.708L93.6193 182.866C93.9456 182.5 94.3807 182.243 94.8454 182.243C95.5573 182.243 95.933 182.659 95.933 183.44C95.933 184.231 95.577 184.666 94.9047 184.666C94.4499 184.666 94.0247 184.458 93.8665 183.707L92.6899 183.924Z" fill="white"/>
<path d="M98.2961 183.815C98.4049 184.972 99.3244 185.813 100.61 185.813C101.945 185.813 102.953 184.913 102.953 183.489C102.953 182.263 102.3 181.433 101.233 181.433C101.114 181.433 101.045 181.442 100.956 181.452L102.587 179.248V178.812H98.6224V179.959H100.827L99.5222 181.749L100.017 182.441C100.224 182.332 100.392 182.293 100.62 182.293C101.252 182.293 101.707 182.708 101.707 183.509C101.707 184.221 101.252 184.666 100.61 184.666C99.977 184.666 99.6408 184.28 99.4925 183.657L98.2961 183.815Z" fill="white"/>
<path d="M104.047 184.962C104.047 185.437 104.403 185.793 104.877 185.793C105.352 185.793 105.708 185.437 105.708 184.962C105.708 184.488 105.352 184.132 104.877 184.132C104.403 184.132 104.047 184.488 104.047 184.962Z" fill="white"/>
<path d="M111.407 185.734V184.587H108.975L110.666 182.382C111.091 181.828 111.259 181.294 111.259 180.74C111.259 179.574 110.507 178.733 109.192 178.733C108.026 178.733 107.195 179.514 107.116 180.572L108.263 180.79C108.342 180.197 108.659 179.88 109.163 179.88C109.726 179.88 110.013 180.226 110.013 180.79C110.013 181.185 109.904 181.522 109.479 182.046L107.007 185.239V185.734H111.407Z" fill="white"/>
<path d="M112.548 183.815C112.657 184.972 113.576 185.813 114.861 185.813C116.196 185.813 117.205 184.913 117.205 183.489C117.205 182.263 116.552 181.433 115.484 181.433C115.366 181.433 115.296 181.442 115.207 181.452L116.839 179.248V178.812H112.874V179.959H115.079L113.774 181.749L114.268 182.441C114.476 182.332 114.644 182.293 114.871 182.293C115.504 182.293 115.959 182.708 115.959 183.509C115.959 184.221 115.504 184.666 114.861 184.666C114.229 184.666 113.892 184.28 113.744 183.657L112.548 183.815Z" fill="white"/>
<path d="M60.4646 325.677C60.4646 324.837 61.1456 324.156 61.9857 324.156H70.3519C71.192 324.156 71.8731 324.837 71.8731 325.677C71.8731 326.517 71.192 327.198 70.3519 327.198H61.9857C61.1456 327.198 60.4646 326.517 60.4646 325.677Z" fill="#475FEF"/>
<path fill-rule="evenodd" clip-rule="evenodd" d="M285.591 417.705L39.9294 417.705L39.9294 416.945L285.591 416.945L285.591 417.705Z" fill="#F2F2F2"/>
<path fill-rule="evenodd" clip-rule="evenodd" d="M285.591 489.198L39.9294 489.198L39.9294 488.438L285.591 488.438L285.591 489.198Z" fill="#F2F2F2"/>
<path d="M74.9152 381.959C74.9152 391.2 67.4239 398.691 58.1828 398.691C48.9418 398.691 41.4504 391.2 41.4504 381.959C41.4504 372.718 48.9418 365.227 58.1828 365.227C67.4239 365.227 74.9152 372.718 74.9152 381.959Z" fill="#475FEF"/>
<path d="M53.167 385.92C53.459 387.258 54.0918 388.378 55.0897 389.23C56.0876 390.082 57.2801 390.52 58.6674 390.52C60.225 390.52 61.4906 389.984 62.4641 388.913C63.3403 387.964 63.7784 386.796 63.7784 385.433C63.7054 383.729 63.0969 382.732 61.953 381.88C61.1499 381.271 60.6874 381.028 59.7139 380.541L58.3997 379.86C58.132 379.714 57.8156 379.495 57.4261 379.227C56.6717 378.643 56.4283 378.059 56.4283 377.256C56.4283 376.112 57.3045 375.138 58.4727 375.138C59.6166 375.138 60.3954 375.552 61.1742 376.939L62.9022 375.82C62.0017 374.067 60.7361 373.094 58.4727 373.094C57.3288 373.094 56.3553 373.507 55.5278 374.335C54.7003 375.162 54.2865 376.185 54.2865 377.426C54.2865 378.691 54.6759 379.641 55.5521 380.419C56.4283 381.174 57.0854 381.563 58.424 382.172C60.4684 383.145 61.6366 383.997 61.6366 385.482C61.6366 386.285 61.4176 386.966 60.9795 387.502C60.4197 388.159 59.6652 388.475 58.6674 388.475C56.6473 388.475 55.6738 387.112 55.0167 384.8L53.167 385.92Z" fill="white"/>
<path d="M99.1203 451.931V450.744H96.0157L98.9819 445.603V445.01H94.3942V446.196H97.2219L94.2261 451.338V451.931H99.1203Z" fill="#1D233A"/>
<path d="M101.301 451.931L101.806 450.299H104.001L104.505 451.931H105.889L103.546 445.01H102.26L99.9171 451.931H101.301ZM102.903 446.71L103.635 449.113H102.171L102.903 446.71Z" fill="#1D233A"/>
<path d="M108.039 451.931V448.945H108.711L110.57 451.931H112.004L110.086 448.836C110.926 448.569 111.381 447.887 111.381 446.977C111.381 445.83 110.659 445.01 109.275 445.01H106.754V451.931H108.039ZM108.039 446.196H109.285C109.749 446.196 110.096 446.414 110.096 446.977C110.096 447.541 109.749 447.758 109.285 447.758H108.039V446.196Z" fill="#1D233A"/>
<path d="M113.902 451.931L114.406 450.299H116.601L117.105 451.931H118.49L116.146 445.01H114.861L112.518 451.931H113.902ZM115.504 446.71L116.235 449.113H114.772L115.504 446.71Z" fill="#1D233A"/>
<path d="M94.3174 462.198C94.3174 464.001 95.5039 464.921 96.7816 464.921C97.9148 464.921 98.6602 464.32 98.934 463.309L98.143 463.111C97.8768 463.788 97.5041 464.13 96.7816 464.13C95.8841 464.13 95.1692 463.507 95.1692 462.198C95.1692 460.89 95.8841 460.267 96.7816 460.267C97.5041 460.267 97.8768 460.609 98.143 461.286L98.934 461.088C98.6602 460.076 97.9148 459.476 96.7816 459.476C95.5039 459.476 94.3174 460.396 94.3174 462.198Z" fill="#A5A7AD"/>
<path d="M102.977 464.86V464.069H100.68V459.536H99.8436V464.86H102.977Z" fill="#A5A7AD"/>
<path d="M103.386 462.198C103.386 464.016 104.527 464.921 105.828 464.921C107.128 464.921 108.269 464.016 108.269 462.198C108.269 460.381 107.128 459.476 105.828 459.476C104.527 459.476 103.386 460.381 103.386 462.198ZM104.238 462.198C104.238 460.89 104.976 460.267 105.828 460.267C106.679 460.267 107.417 460.89 107.417 462.198C107.417 463.507 106.679 464.13 105.828 464.13C104.976 464.13 104.238 463.507 104.238 462.198Z" fill="#A5A7AD"/>
<path d="M110.084 460.327V464.86H110.92V460.327H112.411V459.536H108.593V460.327H110.084Z" fill="#A5A7AD"/>
<path d="M113.975 464.86V462.411H116.135V464.86H116.972V459.536H116.135V461.62H113.975V459.536H113.139V464.86H113.975Z" fill="#A5A7AD"/>
<path d="M118.907 464.86V459.536H118.07V464.86H118.907Z" fill="#A5A7AD"/>
<path d="M120.838 464.86V461.042L123.021 464.86H123.918V459.536H123.082V463.37L120.899 459.536H120.001V464.86H120.838Z" fill="#A5A7AD"/>
<path d="M124.822 462.198C124.822 464.062 125.993 464.921 127.24 464.921C127.993 464.921 128.457 464.526 128.64 464.199L128.7 464.86H129.431V462.176H127.56V462.913H128.594C128.533 463.56 128.115 464.13 127.286 464.13C126.366 464.13 125.673 463.529 125.673 462.198C125.673 460.905 126.366 460.267 127.286 460.267C127.925 460.267 128.373 460.616 128.64 461.354L129.408 461.118C129.18 460.16 128.434 459.476 127.286 459.476C126.008 459.476 124.822 460.335 124.822 462.198Z" fill="#A5A7AD"/>
<path d="M271.785 462.731C271.785 463.735 272.462 464.465 273.443 464.465C273.496 464.465 273.565 464.457 273.618 464.434L272.454 466.442H273.352L274.934 463.697C275.094 463.415 275.192 463.088 275.192 462.731C275.192 461.757 274.485 460.997 273.489 460.997C272.492 460.997 271.785 461.757 271.785 462.731ZM272.591 462.731C272.591 462.145 272.949 461.727 273.489 461.727C274.014 461.727 274.386 462.145 274.386 462.731C274.386 463.362 274.029 463.735 273.489 463.735C272.949 463.735 272.591 463.362 272.591 462.731Z" fill="#A5A7AD"/>
<path d="M277.877 464.959C278.059 465.811 278.698 466.442 279.634 466.442C280.584 466.442 281.299 465.796 281.299 464.822C281.299 463.179 279.017 463.385 279.017 462.335C279.017 462.023 279.23 461.757 279.573 461.757C279.892 461.757 280.158 461.955 280.364 462.343L281.041 461.894C280.759 461.384 280.303 460.997 279.573 460.997C278.797 460.997 278.181 461.59 278.181 462.396C278.181 464.046 280.447 463.803 280.447 464.853C280.447 465.332 280.12 465.651 279.634 465.651C279.033 465.651 278.706 465.119 278.561 464.526L277.877 464.959Z" fill="#A5A7AD"/>
<path d="M285.471 466.381V465.59H283.076V463.948H284.947V463.157H283.076V461.848H285.395V461.057H282.239V466.381H285.471Z" fill="#A5A7AD"/>
<path d="M287.228 466.381V464.206H288.3C289.357 464.206 289.95 463.529 289.95 462.632C289.95 461.742 289.357 461.057 288.3 461.057H286.391V466.381H287.228ZM287.228 461.848H288.338C288.825 461.848 289.099 462.137 289.099 462.632C289.099 463.126 288.825 463.415 288.338 463.415H287.228V461.848Z" fill="#A5A7AD"/>
<path d="M260.38 450.852V449.784H256.692V450.852H260.38Z" fill="#1D233A"/>
<path d="M266.054 453.452V452.305H263.622L265.313 450.1C265.738 449.546 265.906 449.012 265.906 448.459C265.906 447.292 265.155 446.452 263.839 446.452C262.673 446.452 261.842 447.233 261.763 448.291L262.91 448.508C262.989 447.915 263.306 447.599 263.81 447.599C264.373 447.599 264.66 447.945 264.66 448.508C264.66 448.904 264.551 449.24 264.126 449.764L261.654 452.958V453.452H266.054Z" fill="#1D233A"/>
<path d="M267.063 451.277C267.063 452.582 268.071 453.531 269.377 453.531C270.701 453.531 271.69 452.562 271.69 451.277C271.69 449.932 270.721 449.022 269.456 449.022H269.297L270.8 446.452H269.416L267.399 450.061C267.201 450.407 267.063 450.852 267.063 451.277ZM268.309 451.277C268.309 450.565 268.783 450.169 269.377 450.169C269.97 450.169 270.444 450.565 270.444 451.277C270.444 451.949 269.97 452.384 269.377 452.384C268.793 452.384 268.309 451.949 268.309 451.277Z" fill="#1D233A"/>
<path d="M275.194 447.678L272.831 453.452H274.057L276.667 447.045V446.531H272.475V447.678H275.194Z" fill="#1D233A"/>
<path d="M276.615 452.681C276.615 453.155 276.971 453.511 277.445 453.511C277.92 453.511 278.276 453.155 278.276 452.681C278.276 452.206 277.92 451.85 277.445 451.85C276.971 451.85 276.615 452.206 276.615 452.681Z" fill="#1D233A"/>
<path d="M282.627 452.167V453.452H283.873V452.167H284.644V451.02H283.873V446.531H282.568L279.651 451.534V452.167H282.627ZM282.627 448.38V451.02H281.164L282.627 448.38Z" fill="#1D233A"/>
<path d="M285.863 451.643C285.972 452.789 286.911 453.531 288.078 453.531C289.452 453.531 290.352 452.552 290.352 451.158C290.352 449.803 289.679 448.864 288.236 448.864C287.85 448.864 287.524 448.963 287.257 449.121L287.415 447.678H289.956V446.531H286.397L286.011 450.426L286.792 450.585C287.118 450.219 287.554 449.962 288.018 449.962C288.73 449.962 289.106 450.377 289.106 451.158C289.106 451.949 288.75 452.384 288.078 452.384C287.623 452.384 287.198 452.176 287.039 451.425L285.863 451.643Z" fill="#1D233A"/>
<path d="M74.9152 453.452C74.9152 462.693 67.4239 470.184 58.1828 470.184C48.9418 470.184 41.4504 462.693 41.4504 453.452C41.4504 444.211 48.9418 436.719 58.1828 436.719C67.4239 436.719 74.9152 444.211 74.9152 453.452Z" fill="#475FEF"/>
<path d="M64.5086 461.818V459.774H56.3311L64.2653 445.804V444.781H53.5809V446.826H61.223L53.2888 460.796V461.818H64.5086Z" fill="white"/>
<path fill-rule="evenodd" clip-rule="evenodd" d="M285.591 560.691L39.9294 560.691L39.9294 559.931L285.591 559.931L285.591 560.691Z" fill="#F2F2F2"/>
<path d="M96.1047 523.424V520.319H98.8731V523.424H100.158V516.503H98.8731V519.133H96.1047V516.503H94.8193V523.424H96.1047Z" fill="#1D233A"/>
<path d="M101.698 521.387C101.698 522.722 102.657 523.503 103.893 523.503C104.645 523.503 105.238 523.275 105.712 522.89L106.118 523.424H107.571L106.464 521.98C106.701 521.575 106.869 521.11 106.978 520.645L106.266 519.815C106.098 520.359 105.95 520.705 105.762 521.061L104.625 519.568C105.218 519.241 105.752 518.648 105.752 517.808C105.752 517.106 105.179 516.423 104.15 516.423C103.162 516.423 102.539 517.086 102.539 517.897C102.539 518.381 102.736 518.866 103.013 519.251C102.331 519.647 101.698 520.339 101.698 521.387ZM102.885 521.367C102.885 520.863 103.162 520.408 103.636 520.121L105.03 521.98C104.714 522.247 104.407 522.366 103.903 522.366C103.27 522.366 102.885 521.921 102.885 521.367ZM103.626 517.976C103.626 517.669 103.844 517.472 104.15 517.472C104.457 517.472 104.645 517.659 104.645 517.936C104.645 518.351 104.259 518.609 103.943 518.737C103.755 518.5 103.626 518.282 103.626 517.976Z" fill="#1D233A"/>
<path d="M110.105 523.424V519.152L111.43 522.791H112.36L113.685 519.152V523.424H114.97V516.503H113.526L111.895 520.823L110.263 516.503H108.82V523.424H110.105Z" fill="#1D233A"/>
<path d="M94.3174 533.691C94.3174 535.494 95.5039 536.414 96.7816 536.414C97.9148 536.414 98.6602 535.813 98.934 534.802L98.143 534.604C97.8768 535.281 97.5041 535.623 96.7816 535.623C95.8841 535.623 95.1692 534.999 95.1692 533.691C95.1692 532.383 95.8841 531.759 96.7816 531.759C97.5041 531.759 97.8768 532.102 98.143 532.779L98.934 532.581C98.6602 531.569 97.9148 530.969 96.7816 530.969C95.5039 530.969 94.3174 531.889 94.3174 533.691Z" fill="#A5A7AD"/>
<path d="M102.977 536.353V535.562H100.68V531.029H99.8436V536.353H102.977Z" fill="#A5A7AD"/>
<path d="M103.386 533.691C103.386 535.509 104.527 536.414 105.828 536.414C107.128 536.414 108.269 535.509 108.269 533.691C108.269 531.874 107.128 530.969 105.828 530.969C104.527 530.969 103.386 531.874 103.386 533.691ZM104.238 533.691C104.238 532.383 104.976 531.759 105.828 531.759C106.679 531.759 107.417 532.383 107.417 533.691C107.417 534.999 106.679 535.623 105.828 535.623C104.976 535.623 104.238 534.999 104.238 533.691Z" fill="#A5A7AD"/>
<path d="M110.084 531.82V536.353H110.92V531.82H112.411V531.029H108.593V531.82H110.084Z" fill="#A5A7AD"/>
<path d="M113.975 536.353V533.904H116.135V536.353H116.972V531.029H116.135V533.113H113.975V531.029H113.139V536.353H113.975Z" fill="#A5A7AD"/>
<path d="M118.907 536.353V531.029H118.07V536.353H118.907Z" fill="#A5A7AD"/>
<path d="M120.838 536.353V532.535L123.021 536.353H123.918V531.029H123.082V534.863L120.899 531.029H120.001V536.353H120.838Z" fill="#A5A7AD"/>
<path d="M124.822 533.691C124.822 535.555 125.993 536.414 127.24 536.414C127.993 536.414 128.457 536.019 128.64 535.692L128.7 536.353H129.431V533.669H127.56V534.406H128.594C128.533 535.053 128.115 535.623 127.286 535.623C126.366 535.623 125.673 535.022 125.673 533.691C125.673 532.398 126.366 531.759 127.286 531.759C127.925 531.759 128.373 532.109 128.64 532.847L129.408 532.611C129.18 531.653 128.434 530.969 127.286 530.969C126.008 530.969 124.822 531.828 124.822 533.691Z" fill="#A5A7AD"/>
<path d="M275.07 537.874V537.144H273.017L274.53 535.22C274.834 534.832 274.971 534.421 274.971 534.003C274.971 533.052 274.325 532.49 273.427 532.49C272.56 532.49 271.937 533.098 271.876 533.889L272.636 534.034C272.697 533.547 272.963 533.22 273.427 533.22C273.914 533.22 274.157 533.547 274.157 534.034C274.157 534.345 274.081 534.589 273.732 535.022L271.769 537.54V537.874H275.07Z" fill="#A5A7AD"/>
<path d="M277.877 536.452C278.059 537.304 278.698 537.935 279.634 537.935C280.584 537.935 281.299 537.289 281.299 536.315C281.299 534.672 279.018 534.878 279.018 533.828C279.018 533.516 279.23 533.25 279.573 533.25C279.892 533.25 280.158 533.448 280.364 533.836L281.041 533.387C280.759 532.878 280.303 532.49 279.573 532.49C278.797 532.49 278.181 533.083 278.181 533.889C278.181 535.539 280.447 535.296 280.447 536.346C280.447 536.825 280.12 537.144 279.634 537.144C279.033 537.144 278.706 536.612 278.561 536.019L277.877 536.452Z" fill="#A5A7AD"/>
<path d="M285.471 537.874V537.083H283.076V535.441H284.947V534.65H283.076V533.341H285.395V532.55H282.239V537.874H285.471Z" fill="#A5A7AD"/>
<path d="M287.228 537.874V535.699H288.3C289.357 535.699 289.95 535.022 289.95 534.125C289.95 533.235 289.357 532.55 288.3 532.55H286.391V537.874H287.228ZM287.228 533.341H288.338C288.825 533.341 289.099 533.63 289.099 534.125C289.099 534.619 288.825 534.908 288.338 534.908H287.228V533.341Z" fill="#A5A7AD"/>
<path d="M264.071 519.764V524.945H265.317V518.024H264.773L262.746 519.21V520.555L264.071 519.764Z" fill="#1D233A"/>
<path d="M266.792 522.878C266.792 524.223 267.84 525.024 269.047 525.024C270.253 525.024 271.301 524.223 271.301 522.878C271.301 522.087 270.945 521.534 270.381 521.217C270.807 520.891 271.034 520.397 271.034 519.833C271.034 518.805 270.233 517.945 269.047 517.945C267.86 517.945 267.059 518.805 267.059 519.833C267.059 520.397 267.277 520.891 267.702 521.217C267.138 521.534 266.792 522.087 266.792 522.878ZM268.038 522.878C268.038 522.236 268.483 521.88 269.047 521.88C269.61 521.88 270.055 522.236 270.055 522.878C270.055 523.521 269.61 523.877 269.047 523.877C268.483 523.877 268.038 523.521 268.038 522.878ZM268.216 519.853C268.216 519.339 268.542 518.993 269.047 518.993C269.551 518.993 269.877 519.339 269.877 519.853C269.877 520.377 269.551 520.733 269.047 520.733C268.542 520.733 268.216 520.377 268.216 519.853Z" fill="#1D233A"/>
<path d="M272.258 520.199C272.258 521.544 273.227 522.453 274.492 522.453H274.651L273.148 525.024H274.532L276.549 521.415C276.747 521.069 276.885 520.624 276.885 520.199C276.885 518.894 275.877 517.945 274.571 517.945C273.247 517.945 272.258 518.914 272.258 520.199ZM273.504 520.199C273.504 519.527 273.978 519.092 274.571 519.092C275.155 519.092 275.639 519.527 275.639 520.199C275.639 520.911 275.165 521.306 274.571 521.306C273.978 521.306 273.504 520.911 273.504 520.199Z" fill="#1D233A"/>
<path d="M277.319 524.174C277.319 524.648 277.675 525.004 278.15 525.004C278.625 525.004 278.98 524.648 278.98 524.174C278.98 523.699 278.625 523.343 278.15 523.343C277.675 523.343 277.319 523.699 277.319 524.174Z" fill="#1D233A"/>
<path d="M282.976 519.171L280.613 524.945H281.839L284.449 518.538V518.024H280.257V519.171H282.976Z" fill="#1D233A"/>
<path d="M285.204 521.484C285.204 523.699 286.104 525.024 287.755 525.024C289.406 525.024 290.306 523.699 290.306 521.484C290.306 519.269 289.406 517.945 287.755 517.945C286.104 517.945 285.204 519.269 285.204 521.484ZM286.43 521.484C286.43 519.932 286.845 519.092 287.755 519.092C288.664 519.092 289.08 519.932 289.08 521.484C289.08 523.037 288.664 523.877 287.755 523.877C286.845 523.877 286.43 523.037 286.43 521.484Z" fill="#1D233A"/>
<path d="M74.9152 524.945C74.9152 534.186 67.4239 541.677 58.1828 541.677C48.9418 541.677 41.4504 534.186 41.4504 524.945C41.4504 515.704 48.9418 508.212 58.1828 508.212C67.4239 508.212 74.9152 515.704 74.9152 524.945Z" fill="#475FEF"/>
<path d="M54.664 533.311V525.279H62.4521V533.311H64.5939V516.274H62.4521V523.235H54.664V516.274H52.5222V533.311H54.664Z" fill="white"/>
</g>
<path fill-rule="evenodd" clip-rule="evenodd" d="M197.447 24.8893C199.943 24.8893 201.966 22.8661 201.966 20.3704C201.966 17.8746 199.943 15.8514 197.447 15.8514C194.952 15.8514 192.928 17.8746 192.928 20.3704C192.928 22.8661 194.952 24.8893 197.447 24.8893ZM197.447 23.1947C199.007 23.1947 200.272 21.9302 200.272 20.3704C200.272 18.8105 199.007 17.546 197.447 17.546C195.888 17.546 194.623 18.8105 194.623 20.3704C194.623 21.9302 195.888 23.1947 197.447 23.1947Z" fill="#434343"/>
<path d="M178.242 20.3704C178.242 21.9302 176.977 23.1947 175.417 23.1947C173.858 23.1947 172.593 21.9302 172.593 20.3704C172.593 18.8105 173.858 17.546 175.417 17.546C176.977 17.546 178.242 18.8105 178.242 20.3704Z" fill="#252525"/>
<path d="M118.366 20.3704C118.366 21.9302 117.101 23.1947 115.541 23.1947C113.982 23.1947 112.717 21.9302 112.717 20.3704C112.717 18.8105 113.982 17.546 115.541 17.546C117.101 17.546 118.366 18.8105 118.366 20.3704Z" fill="#252525"/>
<g filter="url(#filter2_d)">
<rect x="4" y="571" width="318" height="73" fill="white"/>
</g>
</g>
<defs>
<filter id="filter0_d" x="0.154785" y="321.41" width="325.211" height="329.775" filterUnits="userSpaceOnUse" color-interpolation-filters="sRGB">
<feFlood flood-opacity="0" result="BackgroundImageFix"/>
<feColorMatrix in="SourceAlpha" type="matrix" values="0 0 0 0 0 0 0 0 0 0 0 0 0 0 0 0 0 0 127 0"/>
<feOffset dy="-1"/>
<feGaussianBlur stdDeviation="10"/>
<feColorMatrix type="matrix" values="0 0 0 0 0.160784 0 0 0 0 0.164706 0 0 0 0 0.239216 0 0 0 0.12 0"/>
<feBlend mode="normal" in2="BackgroundImageFix" result="effect1_dropShadow"/>
<feBlend mode="normal" in="SourceGraphic" in2="effect1_dropShadow" result="shape"/>
</filter>
<filter id="filter1_d" x="-9.37988" y="98.0269" width="332.675" height="126.001" filterUnits="userSpaceOnUse" color-interpolation-filters="sRGB">
<feFlood flood-opacity="0" result="BackgroundImageFix"/>
<feColorMatrix in="SourceAlpha" type="matrix" values="0 0 0 0 0 0 0 0 0 0 0 0 0 0 0 0 0 0 127 0"/>
<feOffset dy="4"/>
<feGaussianBlur stdDeviation="2.5"/>
<feColorMatrix type="matrix" values="0 0 0 0 0.305882 0 0 0 0 0.431373 0 0 0 0 0.968627 0 0 0 0.25 0"/>
<feBlend mode="normal" in2="BackgroundImageFix" result="effect1_dropShadow"/>
<feBlend mode="normal" in="SourceGraphic" in2="effect1_dropShadow" result="shape"/>
</filter>
<filter id="filter2_d" x="-28" y="541" width="382" height="137" filterUnits="userSpaceOnUse" color-interpolation-filters="sRGB">
<feFlood flood-opacity="0" result="BackgroundImageFix"/>
<feColorMatrix in="SourceAlpha" type="matrix" values="0 0 0 0 0 0 0 0 0 0 0 0 0 0 0 0 0 0 127 0"/>
<feOffset dy="2"/>
<feGaussianBlur stdDeviation="16"/>
<feColorMatrix type="matrix" values="0 0 0 0 0.113725 0 0 0 0 0.137255 0 0 0 0 0.227451 0 0 0 0.1 0"/>
<feBlend mode="normal" in2="BackgroundImageFix" result="effect1_dropShadow"/>
<feBlend mode="normal" in="SourceGraphic" in2="effect1_dropShadow" result="shape"/>
</filter>
</defs>
</svg>
