<?xml version="1.0" standalone="no"?>
<!DOCTYPE svg PUBLIC "-//W3C//DTD SVG 20010904//EN"
 "http://www.w3.org/TR/2001/REC-SVG-20010904/DTD/svg10.dtd">
<svg version="1.0" xmlns="http://www.w3.org/2000/svg"
 width="130.000000pt" height="130.000000pt" viewBox="0 0 130.000000 130.000000"
 preserveAspectRatio="xMidYMid meet">

<g transform="translate(0.000000,130.000000) scale(0.100000,-0.100000)"
fill="#000000" stroke="none">
<path d="M0 924 l0 -236 97 90 c90 83 147 140 318 320 l59 62 -237 0 -237 0 0
-236z"/>
<path d="M525 1053 l0 -108 50 -5 c28 -3 74 -3 103 -2 l52 4 0 109 0 109 -102
0 -103 0 0 -107z"/>
<path d="M790 1152 c0 -4 108 -115 240 -247 132 -132 240 -244 240 -250 0 -6
-111 -121 -248 -258 -176 -176 -254 -247 -270 -247 -22 0 -22 2 -22 119 l0
119 -52 4 c-29 2 -75 1 -102 -2 l-49 -5 2 -100 c2 -110 -3 -135 -28 -135 -9 0
-122 106 -251 235 -129 129 -238 235 -242 235 -5 0 -8 -124 -8 -275 l0 -275
650 0 650 0 0 545 0 545 -255 0 c-140 0 -255 -3 -255 -8z"/>
<path d="M257 883 l-227 -228 230 -230 229 -229 3 109 3 110 53 3 52 3 0 240
0 239 -44 0 c-24 0 -48 6 -54 13 -6 7 -13 55 -14 105 l-3 92 -228 -227z"/>
<path d="M768 1003 l-3 -98 -52 -3 -53 -3 0 -235 0 -234 44 0 c24 0 48 -6 54
-13 6 -7 13 -59 14 -115 l3 -102 170 171 c94 94 164 168 157 165 -15 -9 -72
30 -72 50 0 8 -4 14 -9 14 -5 0 -12 10 -16 23 -4 12 -9 29 -12 37 -3 8 -6 42
-7 75 -3 71 12 118 34 110 8 -3 -43 53 -115 125 -71 71 -131 130 -132 130 -1
0 -4 -44 -5 -97z"/>
</g>
</svg>
