<?xml version="1.0" standalone="no"?>
<!DOCTYPE svg PUBLIC "-//W3C//DTD SVG 20010904//EN"
 "http://www.w3.org/TR/2001/REC-SVG-20010904/DTD/svg10.dtd">
<svg version="1.0" xmlns="http://www.w3.org/2000/svg"
 width="626.000000pt" height="626.000000pt" viewBox="0 0 626.000000 626.000000"
 preserveAspectRatio="xMidYMid meet">

<g transform="translate(0.000000,626.000000) scale(0.100000,-0.100000)"
fill="#000000" stroke="none">
<path d="M2925 6246 c-147 -47 -237 -147 -265 -296 -13 -69 -13 -1503 0 -1583
21 -129 93 -226 209 -280 61 -29 73 -31 218 -35 l153 -5 0 -79 c0 -90 8 -111
50 -133 30 -15 39 -46 22 -71 -4 -7 -47 -13 -102 -16 -82 -3 -105 -9 -168 -38
-119 -55 -172 -122 -277 -355 -98 -216 -112 -237 -176 -255 -19 -6 -183 -10
-376 -10 l-341 0 -31 26 c-17 14 -31 31 -31 38 0 14 -46 59 -77 75 -12 6 -63
11 -113 11 -50 0 -101 -5 -113 -11 -31 -16 -77 -61 -77 -75 0 -7 -14 -24 -31
-38 -27 -23 -39 -26 -113 -26 -111 0 -177 -14 -261 -54 -85 -40 -178 -130
-223 -215 -64 -118 -62 -77 -62 -1275 0 -1208 -3 -1158 66 -1281 58 -105 150
-184 271 -233 l68 -27 1985 0 1985 0 68 27 c162 65 276 191 318 351 18 67 19
131 19 1161 0 1193 1 1155 -59 1274 -34 66 -122 160 -186 198 -108 63 -129 67
-400 73 -235 6 -252 7 -286 28 -40 26 -66 73 -175 323 -85 197 -211 297 -387
307 -124 7 -127 8 -127 48 0 29 4 36 26 41 36 9 54 57 54 142 l0 69 153 5
c138 4 158 7 210 31 119 54 201 165 218 294 11 86 11 1454 0 1550 -5 39 -19
93 -32 120 -35 72 -109 146 -182 179 l-62 29 -660 2 c-514 2 -669 -1 -700 -11z
m1352 -149 c50 -18 109 -81 127 -134 13 -38 16 -97 16 -339 l0 -292 -28 -53
c-17 -34 -44 -65 -71 -84 l-43 -30 -651 -3 c-727 -3 -706 -5 -768 65 -58 66
-59 75 -59 400 0 182 4 313 11 337 14 50 73 113 124 131 53 19 1291 20 1342 2z
m-597 -2307 l0 -40 -63 0 c-67 0 -87 10 -87 45 0 32 7 35 82 35 l68 0 0 -40z
m118 -1091 c446 -87 785 -421 887 -876 25 -108 27 -131 22 -273 -3 -109 -11
-178 -25 -231 -111 -429 -425 -742 -846 -844 -511 -124 -1055 131 -1288 605
-68 138 -107 290 -115 452 -16 319 102 622 332 854 124 125 241 202 402 263
206 79 402 94 631 50z m-1449 -157 c62 -50 76 -77 76 -145 -1 -77 -21 -118
-77 -155 -34 -22 -53 -27 -103 -27 -78 0 -125 29 -160 99 -29 58 -31 92 -10
144 48 114 185 156 274 84z"/>
<path d="M3445 2494 c-11 -2 -45 -9 -75 -15 -83 -15 -226 -77 -305 -130 -334
-228 -479 -615 -379 -1014 17 -68 101 -243 141 -295 57 -73 190 -196 251 -232
134 -80 245 -118 408 -139 248 -33 547 75 731 263 132 135 199 250 245 420 30
113 32 336 4 448 -86 342 -360 609 -698 680 -86 18 -263 26 -323 14z"/>
</g>
</svg>
