<?xml version="1.0" standalone="no"?>
<!DOCTYPE svg PUBLIC "-//W3C//DTD SVG 20010904//EN"
 "http://www.w3.org/TR/2001/REC-SVG-20010904/DTD/svg10.dtd">
<svg version="1.0" xmlns="http://www.w3.org/2000/svg"
 width="160.000000pt" height="160.000000pt" viewBox="0 0 160.000000 160.000000"
 preserveAspectRatio="xMidYMid meet">

<g transform="translate(0.000000,160.000000) scale(0.100000,-0.100000)"
fill="#000000" stroke="none">
<path d="M548 1317 c-91 -79 -107 -96 -107 -123 -1 -21 7 -37 27 -54 15 -13
48 -43 74 -67 37 -34 55 -43 83 -43 28 0 35 4 35 20 0 20 7 20 275 20 l275 0
0 98 c0 80 -4 103 -20 130 l-20 33 -253 -2 -252 -1 -5 40 -5 41 -107 -92z"/>
<path d="M990 920 l0 -40 -254 0 -254 0 -21 -34 c-17 -27 -21 -50 -21 -125 l0
-91 273 -2 272 -3 3 -22 c3 -18 10 -23 35 -23 26 0 48 14 110 71 106 97 106
100 -28 217 -58 51 -107 92 -110 92 -3 0 -5 -18 -5 -40z"/>
</g>
</svg>
